<svg viewBox="0 0 512 512" xmlns="http://www.w3.org/2000/svg"><g id="Layer_1" data-name="Layer 1"><path d="m269.343 263.355h-26.686v-32.75h26.686z" fill="#bfbfbf"/><path d="m256 263.355h-13.343v-32.75h13.343z" fill="#8c8c8c"/><path d="m347.647 206.257h-185.683c-22.554 0-40.28-18.291-40.838-40.838-.894-36.141.448-40.922-9.84-85.341-3.829-16.536 8.051-22.7 20.878-21.832 78.115 5.736 152.735 31.132 219.408 62.313 13.543 6.333 21.146 17.914 21.146 31.806v28.821a25.071 25.071 0 0 1 -25.071 25.071z" fill="#eabd8c"/><path d="m370.271 192a25.073 25.073 0 0 1 -22.624 14.257h-185.683c-22.554 0-40.279-18.291-40.838-40.838-.894-36.141.448-40.922-9.84-85.341-3.109-13.426 4.139-20.013 13.841-21.552a23.318 23.318 0 0 0 .521 8.694c11.261 48.62 8.588 49.751 10.166 96.5a30.733 30.733 0 0 0 30.718 29.68h195.478a25.02 25.02 0 0 0 8.261-1.4z" fill="#d3a06c"/><path d="m349.574 29.631a11.327 11.327 0 0 1 -13.733 17.636 4.532 4.532 0 0 0 -5.354.82l-24.3 24.3-15.351-15.354 24.3-24.3a4.532 4.532 0 0 0 .82-5.353 11.326 11.326 0 1 1 21.171-3.906 2.33 2.33 0 0 0 2.621 2.621 11.3 11.3 0 0 1 9.826 3.536z" fill="#f5f5f5"/><path d="m349.572 45.006a11.33 11.33 0 0 1 -13.731 2.261 4.532 4.532 0 0 0 -5.354.82l-24.3 24.3-5.4-5.4 3.282-1.987 23.449-23.3a5.083 5.083 0 0 1 5.7-1c3.713 1.686 9.777 3.605 12.384-.28 4.259-6.349-5.851-14.329-5.851-14.329a11.323 11.323 0 0 1 9.825 18.91z" fill="#e6e6e6"/><path d="m247.147 69 .092-.095c16.877-16.877 41.226-19.89 54.385-6.731s10.146 37.508-6.731 54.385l-.094.092a57.961 57.961 0 0 1 -17.335 38.9c-21.411 21.411-54.264 23.273-73.378 4.159s-17.252-51.967 4.159-73.378a57.955 57.955 0 0 1 38.902-17.332z" fill="#ffd9b3"/><path d="m294.893 116.562-.095.092a57.955 57.955 0 0 1 -17.334 38.9c-20.574 20.574-51.7 23.086-71.067 6.294 19.214 10.5 45.31 6.32 63.317-11.687a57.955 57.955 0 0 0 17.334-38.9l.095-.092c12.993-12.993 20.266-32.069 16.926-46.169 10.236 13.6 6.558 35.828-9.176 51.562z" fill="#fb9"/><path d="m395.341 238.061h-278.275a22.888 22.888 0 0 1 -22.888-22.888v-8.916h324.051v8.916a22.888 22.888 0 0 1 -22.888 22.888z" fill="#f5f5f5"/><path d="m130.206 238.061h-13.14a22.888 22.888 0 0 1 -22.888-22.888v-8.916h13.14v8.916a22.888 22.888 0 0 0 22.888 22.888z" fill="#e6e6e6"/><path d="m401.887 501.343h-291.775a36.75 36.75 0 0 1 -35.2-47.3l48.515-161.953a41.8 41.8 0 0 1 40.038-29.8h183.682a41.8 41.8 0 0 1 39.942 29.487l49.919 161.991a36.751 36.751 0 0 1 -35.121 47.575z" fill="#6cf"/><path d="m134.969 501.343h-24.857a36.75 36.75 0 0 1 -35.2-47.3l48.515-161.953a41.8 41.8 0 0 1 40.038-29.8h24.857a41.8 41.8 0 0 0 -40.037 29.8l-48.521 161.956a36.75 36.75 0 0 0 35.205 47.297z" fill="#4da6ff"/><path d="m338.618 383.035a82.618 82.618 0 1 1 -82.618-82.618 82.617 82.617 0 0 1 82.618 82.618z" fill="#f5f5f5"/><path d="m263.467 465.3c-2.461.221-4.948.352-7.467.352a82.618 82.618 0 0 1 0-165.236c2.519 0 5.006.132 7.467.353a82.6 82.6 0 0 0 0 164.531z" fill="#e6e6e6"/><path d="m267.621 383.035a11.621 11.621 0 1 1 -11.621-11.621 11.621 11.621 0 0 1 11.621 11.621z" fill="#bfbfbf"/><path d="m256 394.655a11.621 11.621 0 1 1 0-23.241z" fill="#8c8c8c"/><path d="m256.2 294.641a89.618 89.618 0 1 0 89.619 89.617 89.719 89.719 0 0 0 -89.619-89.617zm0 165.235a75.618 75.618 0 1 1 75.619-75.618 75.7 75.7 0 0 1 -75.619 75.618zm7-92.861v-37.465a7 7 0 1 0 -14 0v37.465a18.622 18.622 0 1 0 14 0zm-7 21.864a4.621 4.621 0 1 1 4.622-4.621 4.626 4.626 0 0 1 -4.622 4.621zm187.5 64.053-49.922-161.992a48.554 48.554 0 0 0 -46.631-34.425h-70.6v-12.686h118.793a29.922 29.922 0 0 0 29.888-29.889v-8.916a7 7 0 0 0 -7-7h-44.1a31.88 31.88 0 0 0 5.593-18.071v-28.82c0-16.758-9.178-30.663-25.182-38.147-13.381-6.258-26.72-12.108-39.733-17.427a49.926 49.926 0 0 0 1.665-7.956 41.987 41.987 0 0 0 -.942-15.889l18.7-18.7a18.325 18.325 0 1 0 9.787-35.039 18.324 18.324 0 1 0 -35.039 9.787l-19.11 19.108c-14.568-3.39-32.084 1.527-45.7 14.051a62.3 62.3 0 0 0 -19.109 4.589 529.091 529.091 0 0 0 -92.427-15.481c-10.157-.68-18.918 2.374-24.042 8.394-3.307 3.884-6.707 10.854-4.126 22 8.769 37.863 8.926 46.238 9.392 71.1.072 3.842.151 8.066.269 12.835a49.265 49.265 0 0 0 14.176 33.666h-34.123a7 7 0 0 0 -7 7v8.916a29.923 29.923 0 0 0 29.889 29.889h118.794v12.686h-72.4a48.49 48.49 0 0 0 -46.742 34.793l-48.518 161.953a43.75 43.75 0 0 0 41.912 56.306h291.774a43.75 43.75 0 0 0 41.814-56.635zm-123.617-416.479a11.583 11.583 0 0 0 2.017-13.653 4.327 4.327 0 0 1 .872-5.247 4.386 4.386 0 0 1 5.86 0 4.291 4.291 0 0 1 1.354 3.764 9.33 9.33 0 0 0 10.491 10.483 4.284 4.284 0 0 1 3.76 1.355 4.383 4.383 0 0 1 0 5.86 4.326 4.326 0 0 1 -5.247.871 11.585 11.585 0 0 0 -13.652 2.018l-16.66 16.659a34.19 34.19 0 0 0 -2.3-2.569 33.312 33.312 0 0 0 -3.215-2.819zm-72.721 38.314a7.19 7.19 0 0 0 4.827-2.141c7.064-7.065 15.764-11.552 24.5-12.632a31.425 31.425 0 0 1 3.875-.244c6.466 0 12.093 2.123 16.113 6.144 4.806 4.806 6.9 11.905 5.9 19.989-1.082 8.732-5.568 17.432-12.64 24.5l-.087.085a7 7 0 0 0 -2.047 4.734c-.387 12.563-5.816 24.7-15.288 34.168-18.646 18.646-47.123 20.514-63.478 4.159-7.815-7.815-11.75-18.64-11.079-30.482a50.969 50.969 0 0 1 15.239-33c9.469-9.464 21.603-14.893 34.165-15.28zm-119.239 89.246c-.117-4.737-.2-8.933-.267-12.75-.474-25.255-.652-34.7-9.751-74-1.017-4.392-.631-7.679 1.146-9.767 2.19-2.57 6.837-3.879 12.4-3.5a505.577 505.577 0 0 1 76.449 11.792c-1.653 1.372-3.26 2.823-4.8 4.367a64.948 64.948 0 0 0 -19.315 42.1c-.9 15.877 4.483 30.5 15.156 41.173 10.193 10.193 23.775 15.215 37.819 15.215a66.425 66.425 0 0 0 64.687-60.243 61.177 61.177 0 0 0 7.5-10.025c12.914 5.271 26.163 11.076 39.46 17.3 11.035 5.161 17.112 14.2 17.112 25.465v28.82a18.091 18.091 0 0 1 -18.071 18.071h-185.685c-18.503-.007-33.363-14.946-33.84-34.018zm-26.946 49.927v-1.916h310.051v1.916a15.906 15.906 0 0 1 -15.888 15.889h-278.274a15.907 15.907 0 0 1 -15.889-15.889zm148.683 29.889h12.686v12.686h-12.686zm175.962 239.657a29.473 29.473 0 0 1 -23.936 12.081h-291.774a29.751 29.751 0 0 1 -28.5-38.289l48.517-161.953a34.577 34.577 0 0 1 33.331-24.81h183.687a34.623 34.623 0 0 1 33.253 24.549l49.919 161.991a29.475 29.475 0 0 1 -4.497 26.431z"/></g></svg>