<svg id="Capa_1" enable-background="new 0 0 512 512" height="512" viewBox="0 0 512 512" width="512" xmlns="http://www.w3.org/2000/svg"><g><path d="m466.607 154.394-70-70c-1.987-1.988-4.494-3.377-7.233-4.01l-130-30c-2.221-.513-4.526-.513-6.746 0l-130 30c-2.739.633-5.246 2.021-7.233 4.01l-70 70c-2.815 2.812-4.395 6.628-4.395 10.606v302c0 8.284 6.716 15 15 15h95l105-20 105 20h95c8.284 0 15-6.716 15-15v-302c0-3.978-1.58-7.794-4.393-10.606z" fill="#e62e6b"/><path d="m466.607 154.394-70-70c-1.987-1.988-4.494-3.377-7.233-4.01l-130-30c-1.11-.257-2.242-.385-3.373-.385v412.001l105 20h95c8.284 0 15-6.716 15-15v-302c-.001-3.978-1.581-7.794-4.394-10.606z" fill="#b32453"/><path d="m339.787 272h-167.574l-21.213 21.213v167.576l21.212 21.211h167.575l21.213-21.211v-167.576z" fill="#5d6b98"/><path d="m339.787 272h-83.787v210h83.787l21.213-21.211v-167.576z" fill="#4d5a7f"/><path d="m497 201c-3.839 0-7.678-1.465-10.606-4.394l-107.958-107.957-122.436-28.254-122.435 28.254-107.958 107.958c-5.857 5.857-15.355 5.857-21.213 0s-5.858-15.355 0-21.213l111-111c1.987-1.988 4.494-3.377 7.233-4.01l130-30c2.22-.512 4.527-.512 6.746 0l130 30c2.739.633 5.246 2.021 7.233 4.01l111 111c5.858 5.857 5.858 15.355 0 21.213-2.928 2.928-6.767 4.393-10.606 4.393z" fill="#5d6b98"/><path d="m507.607 175.394-111-111c-1.987-1.988-4.494-3.377-7.233-4.01l-130-30c-1.11-.256-2.242-.384-3.374-.384v30.394l122.435 28.254 107.958 107.958c2.93 2.929 6.768 4.394 10.607 4.394s7.678-1.465 10.606-4.394c5.859-5.857 5.859-15.355.001-21.212z" fill="#4d5a7f"/><path d="m286 172h-60c-8.284 0-15-6.716-15-15s6.716-15 15-15h60c8.284 0 15 6.716 15 15s-6.716 15-15 15z" fill="#fff68e"/><path d="m286 172c8.284 0 15-6.716 15-15s-6.716-15-15-15h-30v30z" fill="#ffda44"/><path d="m286 232h-60c-8.284 0-15-6.716-15-15s6.716-15 15-15h60c8.284 0 15 6.716 15 15s-6.716 15-15 15z" fill="#fff68e"/><path d="m286 202h-30v30h30c8.284 0 15-6.716 15-15s-6.716-15-15-15z" fill="#ffda44"/><path d="m361 293.213v-6.213c0-8.284-6.716-15-15-15h-6.213l-83.787 83.787-83.787-83.787h-6.213c-8.284 0-15 6.716-15 15v6.213l83.787 83.787-83.787 83.787v.002 21.211h21.212.001l83.787-83.787 83.787 83.787h21.213v-21.211-.002l-83.787-83.787z" fill="#4d5a7f"/><path d="m361 287c0-8.284-6.716-15-15-15h-6.213l-83.787 83.787v42.426l83.787 83.787h21.213v-21.211-.002l-83.787-83.787 83.787-83.787z" fill="#3d4865"/></g></svg>