<svg id="Capa_1" enable-background="new 0 0 511.031 511.031" height="512" viewBox="0 0 511.031 511.031" width="512" xmlns="http://www.w3.org/2000/svg"><g><g><path d="m327.669 428.51v55.236c0 10.927-8.858 19.785-19.785 19.785h-61.729v-21.881h40.757v-109.285h40.757z" fill="#fbc773"/><path d="m297.137 428.51v55.236c0 10.927-8.858 19.785-19.785 19.785h-57.317c-2.436 0-4.411-1.975-4.411-4.411v-9.397c0-9.776 7.925-17.701 17.701-17.701h26.032c3.133 0 5.673-2.54 5.673-5.673v-37.839-56.145h32.107z" fill="#fbce85"/><path d="m157.936 77.726c19.628-.702 35.156-17.494 33.77-37.589-1.186-17.207-15.046-31.197-32.243-32.53-10.696-.829-20.477 3.137-27.428 9.973-4.258 4.188-9.917 6.647-15.89 6.647h-1.182c-5.973 0-11.632-2.459-15.89-6.647-6.95-6.836-16.731-10.802-27.427-9.973-17.197 1.332-31.057 15.321-32.244 32.529-1.417 20.53 14.817 37.624 35.044 37.624 1.081 0 2.145-.066 3.201-.163z" fill="#fd6773"/><g><path d="m57.113 47.221c1.187-17.208 15.048-31.197 32.245-32.53 2.21-.171 4.377-.127 6.492.094-6.607-5.089-15.068-7.887-24.203-7.179-17.198 1.333-31.058 15.322-32.245 32.53-1.33 19.266 12.886 35.505 31.358 37.431-8.955-6.889-14.499-17.993-13.647-30.346z" fill="#fc4d5a"/></g><path d="m80.136 223.202-6.487 6.486c-8.388 8.387-21.863 8.774-30.718.881-9.415-8.391-10.042-22.9-1.386-32.073l9.191-9.739v-36.396-28.528h53.668v75.738z" fill="#fd6773"/><path d="m60.694 205.73 9.191-9.739v-36.396-28.528h34.518v-7.234h-53.668v28.528 36.396l-9.191 9.739c-8.656 9.172-8.029 23.681 1.386 32.073 4.936 4.399 11.305 6.218 17.43 5.522-7.734-8.544-7.76-21.784.334-30.361z" fill="#fc4d5a"/><path d="m67.85 152.362-31.736-7.582c-11.071-2.645-14.109-16.957-5.067-23.871l33.483-25.603 30.265-25.635 2.336 88.456z" fill="#fbc773"/><g><path d="m90.163 177.41.96-3.93c-20-10.11-33.47-31.27-32.35-55.46 1.39-30.21 25.91-54.73 56.12-56.12 33.84-1.56 61.76 25.41 61.76 58.91v26.56c0 3.21 1.18 6.32 3.32 8.72l41.418 46.505c2.603 2.923 6.331 4.595 10.245 4.595h195.597l48.63-9.18c6.23-1.18 11.27 5.05 8.81 10.9l-11.93 28.35v.01c0 105.619-85.621 191.24-191.24 191.24h-10.12c-105.62 0-191.25-85.62-191.25-191.25 0-6.56.4-13.1 1.2-19.59s2-12.93 3.59-19.29z" fill="#efedef"/></g><path d="m314.169 416.196h-10.12c-105.62 0-191.25-85.62-191.25-191.25 0-6.56.4-13.1 1.2-19.59s2-12.93 3.59-19.29l5.24-20.97.96-3.93c-20-10.11-33.47-31.27-32.35-55.46.815-17.72 9.596-33.475 22.808-43.76-29.912 1.708-54.094 26.081-55.474 56.075-1.12 24.19 12.35 45.35 32.35 55.46l-.96 3.93-5.24 20.97c-1.59 6.36-2.79 12.8-3.59 19.29s-1.2 13.03-1.2 19.59c0 105.63 85.63 191.25 191.25 191.25h10.12c29.952 0 58.292-6.892 83.53-19.166-16.197 4.457-33.25 6.851-50.864 6.851z" fill="#e5e1e5"/><g id="XMLID_1058_"><g><path d="m360.753 281.02v11.04c0 15.66-12.7 33.37-28.37 33.37h-80.517c-5.314 0-9.623-4.308-9.623-9.622v-34.788h16.77 90.14z" fill="#e5e1e5"/><path d="m281.631 303.225c-5.314 0-9.623-4.308-9.623-9.622v-12.582h-12.996-16.77v34.787c0 5.314 4.308 9.622 9.623 9.622h80.518c11.973 0 22.204-10.341 26.369-22.205z" fill="#d7d0d6"/><path d="m377.523 246.61v11.04c0 15.66-12.7 28.37-28.37 28.37h-90.14-16.77v-39.41h40.67 90.14z" fill="#e5e1e5"/><path d="m288.779 269.088c-9.262 0-16.77-7.508-16.77-16.77v-5.708h-29.766v39.41h16.77 90.14c11.597 0 21.561-6.965 25.961-16.932z" fill="#d7d0d6"/><path d="m401.423 207.19v11.04c0 15.67-12.7 28.38-28.37 28.38h-90.14-40.67v-39.42h52.43z" fill="#e5e1e5"/><path d="m312.679 229.335h-18.526c-12.23 0-22.144-9.914-22.144-22.144h-29.766v39.42h40.67 90.14c11.729 0 21.793-7.122 26.114-17.276z" fill="#d7d0d6"/></g></g></g><g><circle cx="106.638" cy="102.98" r="11.842"/><path d="m489.363 196.113c-3.581-4.433-9.282-6.53-14.887-5.473l-47.942 9.055h-197.687l-43.27-48.591c-.918-1.03-1.423-2.357-1.423-3.737v-26.562c0-13.998-4.27-27.253-12.185-38.381 6.196-2.375 11.794-6.192 16.384-11.289 7.792-8.653 11.64-19.845 10.835-31.515-1.441-20.896-18.27-37.874-39.145-39.492-12.353-.959-24.474 3.455-33.268 12.104-2.947 2.898-6.723 4.494-10.631 4.494h-1.183c-3.909 0-7.685-1.596-10.631-4.494-8.792-8.648-20.92-13.062-33.263-12.103-20.876 1.617-37.706 18.594-39.148 39.491-.825 11.964 3.209 23.362 11.357 32.093 5.316 5.695 12.091 9.771 19.473 11.886-1.469 2.15-2.812 4.389-4.026 6.705l-32.231 24.646c-6.505 4.975-9.49 13.041-7.79 21.052 1.7 8.01 7.704 14.169 15.669 16.072l8.864 2.118v31.585l-7.146 7.572c-5.59 5.922-8.475 13.665-8.123 21.801.353 8.136 3.895 15.6 9.974 21.018 5.675 5.058 12.781 7.565 19.876 7.565 5.142 0 10.275-1.325 14.853-3.945.168 13.238 1.638 26.476 4.409 39.387.756 3.52 3.866 5.927 7.325 5.927.521 0 1.052-.055 1.582-.168 4.05-.87 6.628-4.857 5.759-8.907-2.727-12.698-4.108-25.74-4.108-38.762 0-12.486 1.535-24.958 4.563-37.069l4.114-16.456c3.253 1.103 6.621 1.978 10.099 2.573 4.084.699 7.958-2.046 8.656-6.128.698-4.083-2.046-7.959-6.129-8.657-25.523-4.364-43.871-27.219-42.678-53.162 1.208-26.256 22.721-47.77 48.978-48.978 14.246-.656 27.722 4.384 37.986 14.188 10.271 9.81 15.929 23.032 15.929 37.23v26.562c0 5.062 1.854 9.932 5.22 13.712l45.507 51.103c1.424 1.598 3.462 2.512 5.602 2.512h168.438v3.54c0 11.508-9.362 20.871-20.871 20.871h-23.28c-4.143 0-7.5 3.358-7.5 7.5s3.357 7.5 7.5 7.5h20.252v3.54c0 11.508-9.362 20.87-20.87 20.87h-90.139-5.01c-4.143 0-7.5 3.358-7.5 7.5s3.357 7.5 7.5 7.5h5.01 90.139 4.1v3.54c0 11.508-9.362 20.871-20.87 20.871h-90.139c-4.143 0-7.5 3.358-7.5 7.5s3.357 7.5 7.5 7.5h90.139c19.779 0 35.87-16.091 35.87-35.871v-9.07c10.066-6.36 16.771-17.578 16.771-30.34v-5.602c13.909-4.94 23.898-18.227 23.898-33.809v-3.54h18.315c.467 0 .933-.043 1.392-.13l48.632-9.186c.12-.021.266-.05.436.16.169.209.113.341.064.459l-11.928 28.359c-.388.92-.587 1.909-.587 2.908 0 101.317-82.428 183.744-183.744 183.744h-10.121c-37.458 0-73.489-11.199-104.2-32.386-30.009-20.703-52.996-49.47-66.477-83.19-1.537-3.846-5.903-5.718-9.748-4.18-3.846 1.537-5.718 5.902-4.18 9.748 14.58 36.473 39.438 67.583 71.887 89.969 29.422 20.298 63.354 32.115 98.868 34.557v28.995h-24.205c-13.896 0-25.201 11.305-25.201 25.201v9.396c0 6.568 5.343 11.911 11.91 11.911h26.121 31.197 30.531c15.045 0 27.285-12.24 27.285-27.285v-55.101c83.133-23.343 144.389-99.52 145.07-189.852l11.347-26.978c2.211-5.252 1.359-11.269-2.222-15.701zm-455.988-63.226c-.236-1.117-.494-3.939 2.229-6.021l15.882-12.144c-.09.979-.162 1.963-.208 2.954-.38 8.274.785 16.303 3.245 23.79l-16.665-3.981c-3.335-.797-4.246-3.48-4.483-4.598zm49.116 44.292-4.844 19.379c-1.852 7.408-3.176 14.942-4.003 22.53l-5.298 5.297c-5.571 5.57-14.544 5.829-20.425.586-3.028-2.699-4.792-6.416-4.968-10.468-.175-4.052 1.262-7.908 4.045-10.858l9.191-9.739c1.314-1.392 2.046-3.234 2.046-5.148v-30.982l5.097 1.218c5.086 7.237 11.588 13.443 19.159 18.185zm32.059-122.775c-15.066.693-28.917 6.57-39.803 15.852-.1.001-.203.004-.3.004-7.742 0-14.918-3.119-20.204-8.783-5.281-5.658-7.895-13.054-7.358-20.825.934-13.529 11.828-24.521 25.343-25.568 8.005-.625 15.887 2.237 21.587 7.843 5.77 5.675 13.28 8.8 21.149 8.8h1.183c7.868 0 15.379-3.125 21.148-8.8 5.7-5.605 13.569-8.465 21.59-7.843 13.514 1.047 24.407 12.04 25.34 25.569.523 7.579-1.969 14.839-7.017 20.445-4.417 4.905-10.265 7.998-16.693 8.886-12.819-10.844-28.964-16.363-45.965-15.58zm205.619 429.341c0 6.774-5.511 12.285-12.285 12.285h-6.18c1.872-3.695 2.934-7.867 2.934-12.285v-4.625c0-4.142-3.357-7.5-7.5-7.5s-7.5 3.358-7.5 7.5v4.625c0 6.774-5.511 12.285-12.285 12.285h-31.197-23.031v-6.308c0-5.625 4.576-10.201 10.201-10.201h26.031c7.264 0 13.174-5.91 13.174-13.173v-30.338h8.971c2.727 0 5.437-.07 8.137-.18v11.328c0 4.142 3.357 7.5 7.5 7.5s7.5-3.358 7.5-7.5v-12.502c5.241-.61 10.421-1.422 15.531-2.433v51.522z"/><path d="m317.808 254.106c4.143 0 7.5-3.358 7.5-7.5s-3.357-7.5-7.5-7.5h-34.896c-4.143 0-7.5 3.358-7.5 7.5s3.357 7.5 7.5 7.5z"/><path d="m215.624 332.927c4.143 0 7.5-3.358 7.5-7.5s-3.357-7.5-7.5-7.5h-15.899c-4.143 0-7.5 3.358-7.5 7.5s3.357 7.5 7.5 7.5z"/></g></g></svg>