<?xml version="1.0" encoding="UTF-8"?>
<svg xmlns="http://www.w3.org/2000/svg" xmlns:xlink="http://www.w3.org/1999/xlink" version="1.1" id="Capa_1" x="0px" y="0px" viewBox="0 0 512 512" style="enable-background:new 0 0 512 512;" xml:space="preserve" width="512" height="512">
<g>
	<g>
		<path style="fill:#FD3501;" d="M264.128,168.243c0,16.94-39.699,26.869-44.765,2.392c-3.96-19.135,12.017-31.618,12.017-31.618&#10;&#9;&#9;&#9;h32.748V168.243z"/>
		<path style="fill:#FF6A47;" d="M230.083,97.697c0,0-18.189-41.298,6.832-66.83c6.638,8.17,16.851,10.298,16.851,10.298&#10;&#9;&#9;&#9;s16.851-31.66,44.426-33.191c-1.532,17.362,9.191,19.404,9.191,19.404s22.896-22.468,38.298-7.149&#10;&#9;&#9;&#9;c-15.402,12.255-2.704,38.426-2.704,38.426L230.083,97.697z"/>
		<path style="fill:#FFFFFF;" d="M211.128,506.995c-11.7-14.086-45.798-80.274,29.362-281.064&#10;&#9;&#9;&#9;c18.078-48.297,17.164-71.954,13.111-83.343c5.745-8.571-4.558-41.422-23.518-44.891l3.118-2.842&#10;&#9;&#9;&#9;c21.638-34.723,54.893-42.121,76.142-42.121c55.742,0,76.032,40.691,85.615,62.133C416.642,163.389,448.574,282.365,512,282.365&#10;&#9;&#9;&#9;v229.63H211.128V506.995z"/>
		<path style="fill:#E3E9EE;" d="M265.489,225.931c15.696-41.931,27.219-86.11,3.134-115.782c-7.646-9.42-6.725-23.158,2.107-31.475&#10;&#9;&#9;&#9;c10.998-10.356,27.985-21.74,51.553-25.155c-4.088-0.509-8.395-0.784-12.941-0.784c-21.249,0-54.504,7.398-76.142,42.121&#10;&#9;&#9;&#9;l-3.118,2.842c18.96,3.468,29.263,36.319,23.518,44.891c4.053,11.389,4.968,35.047-13.111,83.344&#10;&#9;&#9;&#9;c-75.16,200.79-41.062,266.978-29.362,281.064v5h25v-5C224.428,492.909,190.33,426.721,265.489,225.931z"/>
		<path style="fill:#FDE31D;" d="M230.083,97.697c0,0-0.228-0.029-0.638-0.081l-42.913,31.546l67.068,13.425&#10;&#9;&#9;&#9;C259.345,134.016,249.043,101.165,230.083,97.697z"/>
		<circle style="fill:#626169;" cx="311.128" cy="101.165" r="16"/>
		<g>
			<path style="fill:#FF6A47;" d="M395.309,271.088l-30.115-16.007c0,0-37.173,248.914,146.806,248.914v-101&#10;&#9;&#9;&#9;&#9;C410.532,402.995,395.309,271.088,395.309,271.088z"/>
			<path style="fill:#FF6A47;" d="M442.782,225.952l-0.002,0.001l-1.481,27.295l-17.697-4.509v0c0,0,13.456,73.256,88.398,73.256&#10;&#9;&#9;&#9;&#9;v-39.63C483.031,282.365,460.635,257.542,442.782,225.952z"/>
			<path style="fill:#FFFFFF;" d="M423.602,248.739L423.602,248.739l-18.065-4.603l-10.227,26.951&#10;&#9;&#9;&#9;&#9;c0,0,15.223,131.907,116.691,131.907v-81C437.058,321.995,423.602,248.739,423.602,248.739z"/>
		</g>
		<path style="fill:#FF6A47;" d="M253.6,142.588c-0.572,7.329-4.877,33.333-1.17,44.597c6.953,21.129,38.001,20.927,43.067-3.551&#10;&#9;&#9;&#9;c3.96-19.135-12.161-30.481-21.785-35.448C267.074,144.76,253.6,142.588,253.6,142.588z"/>
		<path style="fill:#E6CC9F;" d="M322.691,383.137c0,0-67.727-79.875-107.124-81.098c-29.395-0.913-91.193,47.31-91.193,47.31v0&#10;&#9;&#9;&#9;c0,51.667,41.884,93.551,93.551,93.551h0c27.213,0,54.026-6.556,78.168-19.114l42-21.847L322.691,383.137z"/>
		<g>
			<path style="fill:#DFBA7F;" d="M236.6,308.195c-30.63,2.99-87.23,47.15-87.23,47.15s-0.8,1.36-2.12,3.32&#10;&#9;&#9;&#9;&#9;c-7.04-4.67-14.8-7.64-22.88-9.32c0,0,61.8-48.22,91.2-47.31C221.97,302.235,229.12,304.525,236.6,308.195z"/>
		</g>
		<path style="fill:#FFCEB7;" d="M398.6,384.731c-12.616-17.662-36.431-23.128-55.486-12.734l-84.185,45.919&#10;&#9;&#9;&#9;c0.271-1.362,0.415-2.769,0.415-4.21v0c0-11.854-9.609-21.463-21.463-21.463h-65.016c0,0-10.18-22.203-18.398-27.943&#10;&#9;&#9;&#9;c-43.22-39.544-124.931,3.28-124.931,3.28H0v81.478h46.964l165.31,52.968l186.581-116.938L398.6,384.731z"/>
		<rect x="0" y="367.58" style="fill:#FFAA81;" width="25" height="81.478"/>
	</g>
	<g>
		<polyline style="fill:none;stroke:#000000;stroke-width:15;stroke-miterlimit:10;" points="0,449.055 46.96,449.055 &#10;&#9;&#9;&#9;85.22,461.315 &#9;&#9;"/>
		<path style="fill:none;stroke:#000000;stroke-width:15;stroke-miterlimit:10;" d="M258.45,418.175l84.66-46.18&#10;&#9;&#9;&#9;c19.06-10.39,42.87-4.93,55.49,12.74l0.26,0.35l-186.59,116.94L99.5,465.895"/>
		<path style="fill:none;stroke:#000000;stroke-width:15;stroke-miterlimit:10;" d="M146.664,435.168h91.218&#10;&#9;&#9;&#9;c11.854,0,21.463-9.609,21.463-21.463v0c0-11.854-9.609-21.463-21.463-21.463h-65.016c0,0-10.18-22.203-18.398-27.943&#10;&#9;&#9;&#9;c-43.22-39.544-124.931,3.28-124.931,3.28H0"/>
		<path style="fill:none;stroke:#000000;stroke-width:15;stroke-miterlimit:10;" d="M124.374,349.348&#10;&#9;&#9;&#9;c0,0,61.798-48.223,91.193-47.31c39.397,1.223,107.124,81.098,107.124,81.098"/>
		<path style="fill:none;stroke:#000000;stroke-width:15;stroke-miterlimit:10;" d="M215.14,302.025&#10;&#9;&#9;&#9;c6.58-22.91,14.91-48.2,25.35-76.09c5.7-15.24,9.52-28.03,11.94-38.75"/>
		<path style="fill:none;stroke:#000000;stroke-width:15;stroke-miterlimit:10;" d="M253.6,142.588&#10;&#9;&#9;&#9;c-0.572,7.329-4.877,33.333-1.17,44.597c6.953,21.129,38.001,20.927,43.067-3.551c3.96-19.135-12.161-30.481-21.785-35.448&#10;&#9;&#9;&#9;C267.074,144.76,253.6,142.588,253.6,142.588z"/>
		<path style="fill:none;stroke:#000000;stroke-width:15;stroke-miterlimit:10;" d="M231.38,139.015c0,0-15.98,12.48-12.02,31.62&#10;&#9;&#9;&#9;c3.13,15.13,19.49,17.11,31.53,12.43"/>
		<path style="fill:none;stroke:#000000;stroke-width:15;stroke-miterlimit:10;" d="M230.083,97.697c0,0-18.189-41.298,6.832-66.83&#10;&#9;&#9;&#9;c6.638,8.17,16.851,10.298,16.851,10.298s16.851-31.66,44.426-33.191c-1.532,17.362,9.191,19.404,9.191,19.404&#10;&#9;&#9;&#9;s22.896-22.468,38.298-7.149c-15.402,12.255-2.704,38.426-2.704,38.426"/>
		<circle style="fill:none;stroke:#000000;stroke-width:15;stroke-miterlimit:10;" cx="311.128" cy="101.165" r="16"/>
		<polyline style="fill:none;stroke:#000000;stroke-width:15;stroke-miterlimit:10;" points="230.518,253.603 248.665,277.313 &#10;&#9;&#9;&#9;278.052,257.912 296.563,281.253 321.974,259.257 345.918,279.829 365.194,255.081 395.309,271.088 405.536,244.136 &#10;&#9;&#9;&#9;441.298,253.248 442.78,225.953 &#9;&#9;"/>
		<path style="fill:none;stroke:#000000;stroke-width:15;stroke-miterlimit:10;" d="M375.02,400.025&#10;&#9;&#9;&#9;c17.04,54.7,55.12,103.97,136.98,103.97"/>
		<path style="fill:none;stroke:#000000;stroke-width:15;stroke-miterlimit:10;" d="M367.12,366.905&#10;&#9;&#9;&#9;c-10.01-57.74-1.93-111.82-1.93-111.82"/>
		<path style="fill:none;stroke:#000000;stroke-width:15;stroke-miterlimit:10;" d="M395.309,271.088&#10;&#9;&#9;&#9;c0,0,15.223,131.907,116.691,131.907"/>
		<path style="fill:none;stroke:#000000;stroke-width:15;stroke-miterlimit:10;" d="M423.602,248.739&#10;&#9;&#9;&#9;c0,0,13.456,73.256,88.398,73.256"/>
		<path style="fill:none;stroke:#000000;stroke-width:15;stroke-miterlimit:10;" d="M409.8,152.035&#10;&#9;&#9;&#9;c21.28,55.2,51.8,130.33,102.2,130.33"/>
		<path style="fill:none;stroke:#000000;stroke-width:15;stroke-miterlimit:10;" d="M230.08,97.695&#10;&#9;&#9;&#9;c18.96,3.47,29.27,36.32,23.52,44.89l-67.07-13.42l46.67-34.31c21.64-34.72,54.89-42.12,76.14-42.12&#10;&#9;&#9;&#9;c55.75,0,76.03,40.69,85.62,62.13c2.9,6.48,5.98,14.22,9.29,22.77"/>
	</g>
	<g>
		
			<line style="fill:none;stroke:#FFFFFF;stroke-width:15;stroke-miterlimit:10;" x1="208.032" y1="337.581" x2="223.032" y2="337.581"/>
		
			<line style="fill:none;stroke:#FFFFFF;stroke-width:15;stroke-miterlimit:10;" x1="238.032" y1="354.581" x2="253.032" y2="354.581"/>
	</g>
</g>















</svg>
