<?xml version="1.0" encoding="iso-8859-1"?>
<!-- Generator: Adobe Illustrator 19.0.0, SVG Export Plug-In . SVG Version: 6.00 Build 0)  -->
<svg version="1.1" id="Capa_1" xmlns="http://www.w3.org/2000/svg" xmlns:xlink="http://www.w3.org/1999/xlink" x="0px" y="0px"
	 viewBox="0 0 511.999 511.999" style="enable-background:new 0 0 511.999 511.999;" xml:space="preserve">
<path style="fill:#FFB300;" d="M428.479,180.547c0-94.84-76.552-171.799-171.237-172.459
	C161.674,7.422,83.551,84.981,83.553,180.552c0.001,56.477,27.153,106.61,69.114,138.066c17.6,13.193,27.897,33.955,27.897,55.95
	l0,0h150.905v-0.001c0-22.117,10.503-42.855,28.173-56.157C401.446,286.941,428.479,236.903,428.479,180.547z"/>
<path style="fill:#FFD54F;" d="M257.243,8.089C183.377,7.574,119.944,53.796,94.939,118.94
	c8.767,125.972,113.719,225.447,241.919,225.447c0.5,0,0.996-0.016,1.496-0.019c4.843-10.097,12.092-19.036,21.287-25.958
	c41.804-31.469,68.838-81.507,68.838-137.863C428.479,85.708,351.927,8.748,257.243,8.089z"/>
<path style="fill:#57565C;" d="M159.006,439.242c0-11.906,9.651-21.558,21.558-21.558c-11.906,0-21.558-9.651-21.558-21.558
	c0-11.906,9.651-21.558,21.558-21.558h150.905c11.906,0,21.558,9.651,21.558,21.558c0,11.906-9.651,21.558-21.558,21.558
	c11.906,0,21.558,9.651,21.558,21.558c0,11.906-9.651,21.558-21.558,21.558c11.906,0,21.558,9.651,21.558,21.558
	c0,11.906-9.651,21.558-21.558,21.558H180.563c-11.906,0-21.558-9.651-21.558-21.558c0-11.906,9.651-21.558,21.558-21.558
	C168.657,460.8,159.006,451.148,159.006,439.242z"/>
<path style="fill:#FFFFFF;" d="M377.736,180.145c-0.04-5.818-0.498-11.666-1.362-17.38l15.987-2.417
	c0.979,6.474,1.498,13.098,1.544,19.686L377.736,180.145z M373.175,147.972c-14.662-51.765-62.522-87.918-116.39-87.918V43.885
	c30.456,0,59.295,9.775,83.399,28.269c23.333,17.903,40.575,43.265,48.546,71.412L373.175,147.972z"/>
<path style="fill:#898890;" d="M191.342,482.358c0-11.906,9.651-21.558,21.558-21.558c-11.906,0-21.558-9.651-21.558-21.558
	c0-11.906,9.651-21.558,21.558-21.558c-11.906,0-21.558-9.651-21.558-21.558c0-11.906,9.651-21.558,21.558-21.558h118.568
	c11.906,0,21.558,9.651,21.558,21.558c0,11.906-9.651,21.558-21.558,21.558c11.906,0,21.558,9.651,21.558,21.558
	c0,11.906-9.651,21.558-21.558,21.558c11.906,0,21.558,9.651,21.558,21.558c0,11.906-9.651,21.558-21.558,21.558H212.9
	C200.994,503.916,191.342,494.264,191.342,482.358z"/>
<path style="fill:#FFFFFF;" d="M331.469,404.211h-42.038v-16.168h42.038V404.211z M273.262,404.211h-17.246v-16.168h17.246V404.211z
	"/>
<path d="M256.051,16.168c0.376,0,0.759,0.001,1.135,0.004c89.995,0.626,163.209,74.365,163.209,164.375
	c0,52.118-23.916,100.014-65.616,131.405l9.724,12.918c21.887-16.476,40.018-38.048,52.435-62.384
	c13.022-25.523,19.625-53.092,19.625-81.938c0-48.003-18.63-93.193-52.461-127.244c-33.813-34.037-78.845-52.966-126.803-53.3
	C256.882,0.001,256.468,0,256.051,0c-57.962,0-112.738,28.123-146.726,75.402l13.129,9.438
	C153.409,41.779,203.278,16.168,256.051,16.168z"/>
<path d="M361.111,396.126c0-16.345-13.298-29.642-29.642-29.642h-67.368v-78.147h-16.168v78.147h-59.709
	c-2.253-21.451-13.375-41.34-30.707-54.335c-41.867-31.385-65.878-79.351-65.879-131.598c-0.001-19.675,3.455-38.926,10.27-57.219
	l-15.152-5.645c-7.49,20.105-11.288,41.256-11.287,62.864c0.001,28.91,6.631,56.531,19.709,82.098
	c12.469,24.379,30.671,45.968,52.639,62.437c13.615,10.205,22.382,25.793,24.27,42.639c-12.227,3.656-21.166,15.001-21.166,28.4
	c0,8.488,3.593,16.149,9.329,21.558c-5.738,5.409-9.329,13.069-9.329,21.558c0,8.488,3.593,16.149,9.329,21.558
	c-5.738,5.409-9.329,13.069-9.329,21.558c0,16.345,13.298,29.642,29.642,29.642h150.905c16.344,0,29.642-13.297,29.642-29.642
	c0-8.488-3.593-16.149-9.329-21.558c5.738-5.409,9.329-13.069,9.329-21.558c0-8.488-3.593-16.149-9.329-21.558
	C357.518,412.275,361.111,404.615,361.111,396.126z M344.942,482.358c0,7.43-6.044,13.474-13.474,13.474H180.563
	c-7.43,0-13.474-6.044-13.474-13.474s6.044-13.474,13.474-13.474h150.905C338.899,468.884,344.942,474.928,344.942,482.358z
	 M344.942,439.242c0,7.43-6.044,13.474-13.474,13.474H180.563c-7.43,0-13.474-6.044-13.474-13.474s6.044-13.474,13.474-13.474
	h150.905C338.899,425.768,344.942,431.812,344.942,439.242z M180.563,409.6c-7.43,0-13.474-6.044-13.474-13.474
	s6.044-13.474,13.474-13.474h150.905c7.43,0,13.474,6.044,13.474,13.474s-6.044,13.474-13.474,13.474H180.563z"/>
<rect x="247.915" y="-94.628" transform="matrix(0.7071 -0.7071 0.7071 0.7071 -106.0205 255.9921)" width="16.17" height="701.203"/>
<polygon points="264.1,223.663 264.1,194.674 315.628,143.148 304.194,131.715 256.016,179.894 207.839,131.715 196.404,143.148 
	247.932,194.674 247.932,223.663 "/>
<rect x="247.388" y="97.01" width="16.17" height="16.17"/>
<rect x="215.058" y="97.01" width="16.17" height="16.17"/>
<rect x="279.728" y="97.01" width="16.17" height="16.17"/>
<g>
</g>
<g>
</g>
<g>
</g>
<g>
</g>
<g>
</g>
<g>
</g>
<g>
</g>
<g>
</g>
<g>
</g>
<g>
</g>
<g>
</g>
<g>
</g>
<g>
</g>
<g>
</g>
<g>
</g>
</svg>
