<svg height="489pt" viewBox="0 -58 489.74258 489" width="489pt" xmlns="http://www.w3.org/2000/svg"><path d="m461.832031 213.601562 10-64.628906h-19.660156l-27.5 46.808594-5.671875-46.808594h-17.6875l-7.429688 49.828125c-6.914062 2.386719-13.390624 5.886719-19.171874 10.359375-14.082032 10.746094-33.867188 9.746094-46.800782-2.359375-7.5-7-15.078125-13.679687-20.597656-17.847656-30.691406-23.28125-67.808594-36.546875-106.300781-38l-29.539063-29.050781-20.300781 33.789062c-3.894531.898438-7.75 1.921875-11.570313 3.070313l-46.429687-18.332031-10.140625 46.203124c-23.949219 17.386719-43.375 40.269532-56.640625 66.726563-7.398437 14.75-13.554687 30.089844-18.410156 45.863281-2.167969 7.035156-.867188 14.683594 3.511719 20.601563 4.375 5.921875 11.304687 9.410156 18.667968 9.398437h62.839844l-17.679688 9.730469c-5.757812 3.164063-8.640624 9.828125-7.003906 16.191406 1.636719 6.363281 7.375 10.808594 13.945313 10.808594h119.570312c40.605469-.011719 80.816407-8 118.339844-23.523437l32-13.25h62.460937c37.296876 0 68.488282-30.527344 68-67.828126-.183593-18.078124-7.6875-35.308593-20.800781-47.75zm0 0" fill="#d6cbc3"/><path d="m211.050781 257.042969-6.191406-.480469c-.847656-.050781-1.644531-.441406-2.207031-1.082031s-.847656-1.476563-.792969-2.328125l1.421875-18.300782c.058594-.839843.453125-1.621093 1.101562-2.160156.644532-.554687 1.488282-.828125 2.339844-.761718l6.1875.480468zm0 0" fill="#2fa0b7"/><path d="m187.941406 252.042969c-.707031 9.460937 6.378906 17.714843 15.839844 18.449219l50 3.847656-1.191406 15.5-124.820313-9.667969c-1.136719-.078125-2.199219-.605469-2.949219-1.464844-.75-.863281-1.128906-1.984375-1.050781-3.125l5.792969-75c.191406-2.230469 2.058594-3.945312 4.296875-3.941406h.339844l124.8125 9.660156-1.191407 15.5-50-3.859375c-9.464843-.742187-17.742187 6.332032-18.480468 15.800782zm0 0" fill="#89d8c4"/><path d="m257.859375 221.78125-50-3.859375c-9.464844-.742187-17.738281 6.332031-18.476563 15.800781l-1.441406 18.320313c-.707031 9.460937 6.378906 17.714843 15.839844 18.449219l50 3.847656-1.191406 15.5-124.820313-9.667969c-1.136719-.078125-2.199219-.605469-2.949219-1.464844-.75-.863281-1.128906-1.984375-1.050781-3.125l5.792969-75c.191406-2.230469 2.058594-3.945312 4.296875-3.941406h.339844l124.8125 9.660156zm0 0" fill="#89d8c4"/><path d="m212.949219 232.359375-1.898438 24.683594-6.191406-.480469c-.847656-.050781-1.644531-.441406-2.207031-1.082031s-.847656-1.476563-.792969-2.328125l1.421875-18.300782c.058594-.839843.453125-1.621093 1.101562-2.160156.644532-.554687 1.488282-.828125 2.339844-.761718zm0 0" fill="#2fa0b7"/><path d="m435.75 252.582031 8.410156-9.089843c1.609375-1.699219 2.179688-4.132813 1.492188-6.367188-.683594-2.238281-2.515625-3.933594-4.796875-4.445312-2.285157-.507813-4.664063.25-6.234375 1.980468l-7.71875 8.382813-7.730469-8.382813c-1.570313-1.730468-3.953125-2.488281-6.234375-1.980468-2.28125.511718-4.117188 2.207031-4.800781 4.445312-.683594 2.234375-.113281 4.667969 1.496093 6.367188l8.410157 9.089843-8.410157 9.097657c-2.394531 2.640624-2.214843 6.714843.402344 9.136718 2.613282 2.417969 6.6875 2.285156 9.136719-.304687l7.730469-8.351563 7.71875 8.351563c1.570312 1.734375 3.949218 2.488281 6.234375 1.980469 2.28125-.511719 4.113281-2.207032 4.796875-4.441407.6875-2.238281.117187-4.671875-1.492188-6.371093zm0 0" fill="#673d22"/><path d="m270.171875 196.742188c-2.144531-2.507813-5.199219-4.054688-8.492187-4.300782l-126.359376-9.78125c-10.070312-.773437-18.867187 6.742188-19.667968 16.8125l-5.792969 75c-.75 10.070313 6.792969 18.851563 16.863281 19.628906l126.347656 9.789063h1c6.496094 0 11.894532-5.003906 12.390626-11.480469l1.441406-18.609375c0-.320312 0-.648437 0-1-.023438-6.492187-5.027344-11.882812-11.5-12.390625l-31.390625-2.367187 1.898437-24.621094 31.410156 2.417969c6.851563.511718 12.828126-4.601563 13.378907-11.449219l1.472656-18.589844c.253906-3.300781-.824219-6.5625-3-9.058593zm-65.300781 59.769531c-.851563-.050781-1.648438-.441407-2.210938-1.082031-.5625-.640626-.847656-1.476563-.789062-2.328126l1.421875-18.300781c.054687-.839843.453125-1.621093 1.097656-2.160156.648437-.554687 1.492187-.828125 2.339844-.757813l6.191406.476563-1.871094 24.683594zm53-34.730469-50-3.859375c-9.464844-.742187-17.742188 6.332031-18.480469 15.800781l-1.449219 18.320313c-.707031 9.460937 6.378906 17.714843 15.839844 18.449219l50 3.847656-1.191406 15.5-124.820313-9.667969c-1.136719-.078125-2.199219-.605469-2.949219-1.464844-.75-.863281-1.128906-1.984375-1.050781-3.125l5.792969-75c.191406-2.230469 2.058594-3.945312 4.296875-3.941406h.339844l124.8125 9.660156zm0 0" fill="#673d22"/><path d="m412.101562 107.269531h-14v-7c0-2.699219-1-3.796875-3.871093-6.589843-3.238281-3.128907-8.128907-7.867188-8.128907-16.636719 0-8.773438 4.890626-13.511719 8.128907-16.640625 2.871093-2.78125 3.871093-3.882813 3.871093-6.582032 0-2.699218-1-3.800781-3.871093-6.589843-3.238281-3.128907-8.128907-7.859375-8.128907-16.640625 0-8.777344 4.890626-13.507813 8.128907-16.636719 2.871093-2.78125 3.871093-3.882813 3.871093-6.582031v-7h14v7c0 8.769531-4.902343 13.511718-8.128906 16.640625-2.882812 2.78125-3.871094 3.878906-3.871094 6.578125 0 2.703125 1 3.800781 3.871094 6.582031 3.238282 3.140625 8.128906 7.871094 8.128906 16.648437 0 8.78125-4.890624 13.511719-8.128906 16.640626-2.882812 2.78125-3.871094 3.878906-3.871094 6.582031 0 2.699219 1 3.796875 3.871094 6.578125 3.238282 3.140625 8.128906 7.871094 8.128906 16.648437zm0 0" fill="#b1cecf"/><path d="m469.691406 107.269531h-14v-7c0-2.699219-1-3.796875-3.871094-6.589843-3.230468-3.128907-8.128906-7.867188-8.128906-16.636719 0-8.773438 4.898438-13.511719 8.128906-16.640625 2.878907-2.78125 3.871094-3.882813 3.871094-6.582032 0-2.699218-1-3.800781-3.871094-6.589843-3.230468-3.128907-8.128906-7.859375-8.128906-16.640625 0-8.777344 4.898438-13.507813 8.128906-16.636719 2.878907-2.78125 3.871094-3.882813 3.871094-6.582031v-7h14v7c0 8.769531-4.890625 13.511718-8.128906 16.640625-2.871094 2.78125-3.871094 3.878906-3.871094 6.578125 0 2.703125 1 3.800781 3.871094 6.582031 3.238281 3.140625 8.128906 7.871094 8.128906 16.648437 0 8.78125-4.890625 13.511719-8.128906 16.640626-2.871094 2.78125-3.871094 3.878906-3.871094 6.582031 0 2.699219 1 3.796875 3.871094 6.578125 3.238281 3.140625 8.128906 7.871094 8.128906 16.648437zm0 0" fill="#b1cecf"/><path d="m469.292969 211.160156 9.5-61.117187c.308593-2.019531-.273438-4.078125-1.605469-5.628907-1.332031-1.550781-3.273438-2.445312-5.316406-2.441406h-19.699219c-2.46875.011719-4.75 1.320313-6 3.449219l-17 29-3.179687-26.25c-.425782-3.515625-3.410157-6.160156-6.949219-6.160156h-17.730469c-3.480469 0-6.433594 2.554687-6.929688 6l-6.820312 45.757812c-6.136719 2.527344-11.902344 5.867188-17.140625 9.933594-11.367187 8.699219-27.367187 7.851563-37.75-2-9-8.332031-16.101563-14.492187-21.152344-18.300781-31.109375-23.523438-68.550781-37.1875-107.5-39.242188l-25.699219-25.300781 1.390626-57.148437 38.179687-.691407-.25-14-30.878906.5625 18.167969-25.101562-11.339844-8.210938-26.417969 36.421875c-.839844 1.140625-1.300781 2.515625-1.332031 3.929688l-1.597656 65.660156-17.5625 29.28125c-2.273438.546875-4.527344 1.144531-6.769532 1.796875l-42.089844-16.617187-22.859374-55.609376 35.210937-13.691406-5.070313-13.050781-28.789062 11.199219 8.367188-29.839844-13.507813-3.777344-12.140625 43.328125c-.414062 1.507813-.324219 3.109375.261719 4.558594l26.378906 64.183594-8.910156 40.617187c-23.828125 17.84375-43.199219 40.964844-56.589844 67.550782-7.582031 15.09375-13.886719 30.796874-18.851563 46.941406-2.800781 9.148437-1.09375 19.085937 4.601563 26.78125 5.691406 7.691406 14.699219 12.222656 24.269531 12.21875h37.179688c-6.246094 6.0625-8.191406 15.308594-4.917969 23.378906 3.273437 8.066406 11.113281 13.34375 19.816406 13.339844h119.5625c41.519531.046875 82.640625-8.109375 121-24l30.777344-12.71875h61.070313c20.171874-.089844 39.476562-8.191406 53.671874-22.519532 28.128907-28.222656 28.570313-73.738281 1-102.5zm-267.460938 147.742188h-119.5625c-1.703125 0-3.359375-.589844-4.679687-1.671875-1.902344-1.550781-2.90625-3.949219-2.683594-6.390625.226562-2.445313 1.652344-4.617188 3.804688-5.796875l16.089843-8.863281h222.121094c-36.503906 15.042968-75.609375 22.761718-115.089844 22.722656zm205.507813-202.929688h5.460937l3.898438 32.207032h-1c-4.472657 0-8.9375.402343-13.339844 1.203124zm-234.917969-24.640625 11.609375 12.757813c-6.273438.300781-12.542969.917968-18.808594 1.851562zm-74.25 18.847657.300781-.117188 21.089844 8.320312c-8.984375 3.671876-17.675781 8.015626-26 13zm360.199219 153.640624c-11.554688 11.679688-27.28125 18.285157-43.710938 18.359376h-384.488281c-5.132813.011718-9.964844-2.417969-13.019531-6.539063-3.054688-4.125-3.972656-9.453125-2.472656-14.359375 4.742187-15.398438 10.765624-30.375 18-44.769531 12.410156-24.679688 30.378906-46.136719 52.492187-62.691407 16.050781-12.007812 34.003906-21.242187 53.109375-27.320312 4.5-1.4375 9.078125-2.707031 13.730469-3.796875l.328125-.082031c52.496094-12.304688 107.746094-.605469 150.75 31.921875 4.671875 3.519531 11.421875 9.367187 20.0625 17.386719 15.410156 14.515624 39.078125 15.6875 55.847656 2.773437 10.488281-8.171875 23.410156-12.585937 36.699219-12.542969 2.679687.011719 5.351562.199219 8 .5625 2.804687.386719 5.570312-.949218 7-3.390625l25.472656-43.359375h7.507813l-8.789063 56.546875c-.351563 2.273438.433594 4.570313 2.101563 6.152344 11.691406 10.988281 18.433593 26.242187 18.691406 42.285156.257812 16.046875-5.996094 31.507813-17.332032 42.863281zm0 0" fill="#673d22"/><g fill="#fff"><path d="m305.171875 271.382812c-10.9375 0-19.800781-8.867187-19.800781-19.800781 0-10.9375 8.863281-19.800781 19.800781-19.800781 10.933594 0 19.800781 8.863281 19.800781 19.800781-.011718 10.929688-8.871094 19.789063-19.800781 19.800781zm0-26.589843c-3.757813 0-6.800781 3.042969-6.800781 6.800781s3.050781 6.800781 6.808594 6.796875c3.753906-.003906 6.796874-3.050781 6.792968-6.808594-.007812-3.753906-3.050781-6.789062-6.800781-6.789062zm0 0"/><path d="m84.839844 295.160156c-1.699219 0-3.339844-.617187-4.617188-1.738281l-20.660156-18.140625c-2.90625-2.550781-3.191406-6.976562-.640625-9.878906 2.550781-2.90625 6.972656-3.191406 9.878906-.640625l20.660157 18.140625c2.191406 1.921875 2.960937 5 1.933593 7.726562-1.03125 2.726563-3.640625 4.53125-6.554687 4.53125zm0 0"/></g></svg>