<svg height="512" viewBox="0 0 512 512" width="512" xmlns="http://www.w3.org/2000/svg"><g id="Layer_22" data-name="Layer 22"><rect fill="#b5b5b5" height="480" rx="24" width="480" x="16" y="16"/><path d="m472 16h-432a23.731 23.731 0 0 0 -6.879 1.122 23.718 23.718 0 0 0 -1.121 6.878v432a24 24 0 0 0 24 24h432a23.73 23.73 0 0 0 6.878-1.122 23.718 23.718 0 0 0 1.122-6.878v-432a24 24 0 0 0 -24-24z" fill="#ccc"/><circle cx="256" cy="256" fill="#686868" r="208"/><circle cx="256" cy="256" fill="#686868" r="208"/><path d="m256 48a207.172 207.172 0 0 0 -85 18.17 207.908 207.908 0 0 0 -107 181.83c0 114.875 93.125 208 208 208a207.171 207.171 0 0 0 85-18.17 207.911 207.911 0 0 0 107-181.83c0-114.875-93.125-208-208-208z" fill="#939393"/><circle cx="256" cy="256" fill="#d7f1f9" r="176"/><path d="m256 80a175.343 175.343 0 0 0 -70.421 14.7 176 176 0 0 0 156.841 314.6 175.989 175.989 0 0 0 -86.42-329.3z" fill="#e7f7fb"/><g fill="#686868"><circle cx="64" cy="64" r="16"/><circle cx="448" cy="64" r="16"/><circle cx="64" cy="448" r="16"/><circle cx="448" cy="448" r="16"/></g><path d="m448 432a15.885 15.885 0 0 0 -6.562 1.438 15.944 15.944 0 0 0 21.123 21.124 15.943 15.943 0 0 0 -14.561-22.562z" fill="#868686"/><path d="m64 432a15.885 15.885 0 0 0 -6.562 1.438 15.944 15.944 0 0 0 21.123 21.124 15.943 15.943 0 0 0 -14.561-22.562z" fill="#868686"/><path d="m64 48a15.885 15.885 0 0 0 -6.562 1.438 15.944 15.944 0 0 0 21.123 21.124 15.943 15.943 0 0 0 -14.561-22.562z" fill="#868686"/><path d="m448 48a15.885 15.885 0 0 0 -6.562 1.438 15.944 15.944 0 0 0 21.123 21.124 15.943 15.943 0 0 0 -14.561-22.562z" fill="#868686"/><path d="m216 256a39.65 39.65 0 0 1 9.692-25.833v-.27l-71.573-23.857a32 32 0 0 0 -42.119 30.36v39.2a32 32 0 0 0 42.119 30.358l71.572-23.858v-.272a39.649 39.649 0 0 1 -9.691-25.828z" fill="#66bdd4"/><path d="m216 256a39.65 39.65 0 0 1 9.692-25.833v-.27l-71.573-23.857a32 32 0 0 0 -42.119 30.36v39.2a32 32 0 0 0 42.119 30.358l71.572-23.858v-.272a39.649 39.649 0 0 1 -9.691-25.828z" fill="#66bdd4"/><path d="m216 256a39.65 39.65 0 0 1 9.692-25.833v-.27l-71.573-23.857a32 32 0 0 0 -42.119 30.36v39.2a32 32 0 0 0 42.119 30.358l71.572-23.858v-.272a39.649 39.649 0 0 1 -9.691-25.828z" fill="#6697dd"/><path d="m305.96 357.88-23.86-71.575h-.266a39.27 39.27 0 0 1 -51.671 0h-.263l-23.861 71.575a32 32 0 0 0 30.361 42.12h39.2a32 32 0 0 0 30.36-42.12z" fill="#6697dd"/><path d="m357.88 206.04-71.575 23.86v.268a39.267 39.267 0 0 1 0 51.668v.268l71.575 23.856a32 32 0 0 0 42.12-30.36v-39.2a32 32 0 0 0 -42.12-30.36z" fill="#6697dd"/><path d="m275.6 112h-39.2a32 32 0 0 0 -30.358 42.119l23.858 71.574h.27a39.269 39.269 0 0 1 51.666 0h.269l23.858-71.575a32 32 0 0 0 -30.363-42.118z" fill="#6697dd"/><circle cx="256" cy="256" fill="#ccc" r="40"/><path d="m256 216a39.648 39.648 0 0 0 -23.9 8.1 39.827 39.827 0 0 0 55.8 55.8 39.826 39.826 0 0 0 -31.9-63.9z" fill="#e0e0e0"/><path d="m275.6 112h-39.2a31.647 31.647 0 0 0 -20.4 7.375v6.268a82.324 82.324 0 0 0 72.228 81.671l17.732-53.195a32 32 0 0 0 -30.36-42.119z" fill="#85ace4"/><path d="m357.88 206.04-45.88 15.293v10.953a55.714 55.714 0 0 0 55.714 55.714h29.768a31.833 31.833 0 0 0 2.518-12.4v-39.2a32 32 0 0 0 -42.12-30.36z" fill="#85ace4"/><path d="m282.1 286.305h-.266a39.27 39.27 0 0 1 -51.671 0h-.263l-5.9 17.695v24.214a55.785 55.785 0 0 0 55.785 55.786h23.506a31.714 31.714 0 0 0 2.669-26.12z" fill="#85ace4"/><path d="m128 208.708v11.649a59.643 59.643 0 0 0 59.643 59.643h36.729a38.943 38.943 0 0 1 1.32-49.833v-.27l-71.573-23.857a31.711 31.711 0 0 0 -26.119 2.668z" fill="#85ace4"/><path d="m472 8h-432a32.034 32.034 0 0 0 -32 32v432a32.034 32.034 0 0 0 32 32h64a8 8 0 0 0 0-16h-64a16.018 16.018 0 0 1 -16-16v-432a16.018 16.018 0 0 1 16-16h432a16.019 16.019 0 0 1 16 16v432a16.019 16.019 0 0 1 -16 16h-336a8 8 0 0 0 0 16h336a32.035 32.035 0 0 0 32-32v-432a32.035 32.035 0 0 0 -32-32z"/><path d="m256 72c-101.458 0-184 82.539-184 184s82.542 184 184 184 184-82.539 184-184-82.543-184-184-184zm112.871 59.929-70.621 70.622 5.339-16.02a8 8 0 0 0 -15.179-5.062l-10.61 31.822a47.566 47.566 0 0 0 -43.605 0l-20.569-61.7a24 24 0 0 1 22.774-31.591h39.2a24.01 24.01 0 0 1 23.254 29.961 8 8 0 1 0 15.484 4.016 40.006 40.006 0 0 0 -38.738-49.977h-39.2a40 40 0 0 0 -37.949 52.648l15.3 45.9-70.622-70.622a166.971 166.971 0 0 1 225.743 0zm-80.871 124.071a32 32 0 1 1 -32-32 32.035 32.035 0 0 1 32 32zm-74.708 21.805-61.7 20.57a24 24 0 0 1 -31.592-22.775v-39.2a24 24 0 0 1 31.589-22.773l61.7 20.57a47.568 47.568 0 0 0 0 43.61zm42.708 26.195a47.646 47.646 0 0 0 21.8-5.291l20.569 61.7a24 24 0 0 1 -22.769 31.591h-39.2a24 24 0 0 1 -22.77-31.586l20.569-61.7a47.647 47.647 0 0 0 21.801 5.286zm42.707-69.806 61.7-20.569a24.006 24.006 0 0 1 31.593 22.775v39.2a24.006 24.006 0 0 1 -31.59 22.773l-61.7-20.569a47.564 47.564 0 0 0 0-43.612zm-210.707 21.806a167.146 167.146 0 0 1 43.929-112.872l70.628 70.628-45.9-15.3a39.993 39.993 0 0 0 -52.657 37.944v39.2a40.085 40.085 0 0 0 39.875 40.046 40.307 40.307 0 0 0 12.777-2.1l45.905-15.3-70.628 70.628a167.146 167.146 0 0 1 -43.929-112.874zm55.128 124.071 70.622-70.622-15.3 45.9a40 40 0 0 0 37.95 52.651h39.2a40 40 0 0 0 37.949-52.648l-15.3-45.9 70.621 70.622a166.971 166.971 0 0 1 -225.743 0zm236.942-11.2-70.627-70.627 45.9 15.3a40.327 40.327 0 0 0 12.778 2.1 40.086 40.086 0 0 0 39.879-40.044v-39.2a39.994 39.994 0 0 0 -52.653-37.945l-45.9 15.3 70.627-70.627a166.969 166.969 0 0 1 0 225.744z"/><path d="m256 472a216.824 216.824 0 0 0 187.05-107.914 8 8 0 1 0 -13.843-8.016 200.777 200.777 0 0 1 -173.207 99.93c-110.282 0-200-89.719-200-200s89.718-200 200-200 200 89.719 200 200a199.282 199.282 0 0 1 -12.692 70.273 8 8 0 1 0 14.977 5.625 215.229 215.229 0 0 0 13.715-75.898c0-119.1-96.9-216-216-216s-216 96.9-216 216 96.9 216 216 216z"/><path d="m88 64a24 24 0 1 0 -24 24 24.027 24.027 0 0 0 24-24zm-32 0a8 8 0 1 1 8 8 8.007 8.007 0 0 1 -8-8z"/><path d="m472 64a24 24 0 1 0 -24 24 24.027 24.027 0 0 0 24-24zm-32 0a8 8 0 1 1 8 8 8.007 8.007 0 0 1 -8-8z"/><path d="m40 448a24 24 0 1 0 24-24 24.026 24.026 0 0 0 -24 24zm32 0a8 8 0 1 1 -8-8 8.008 8.008 0 0 1 8 8z"/><path d="m424 448a24 24 0 1 0 24-24 24.026 24.026 0 0 0 -24 24zm32 0a8 8 0 1 1 -8-8 8.008 8.008 0 0 1 8 8z"/></g></svg>