<svg id="&#x421;&#x43B;&#x43E;&#x439;_1" enable-background="new 0 0 4000 4000" viewBox="0 0 4000 4000" xmlns="http://www.w3.org/2000/svg"><g><path d="m1531.546 2929.129c-3.54.235-11.554.354-19.486.354-.398 0-.795 0-1.191-.001v152.493c0 39.167 31.865 71.032 71.032 71.032h6.645 98.667c-2.321-6.588-5.857-13.417-11.233-19.399-11.737-13.058-30.765-20.17-56.561-21.141h-37.519c-17.059 0-30.888-13.829-30.888-30.888v-154.517c-6.439.937-12.931 1.631-19.466 2.067z" fill="#ff8e39"/><path d="m1452.631 3112.468h-153.389c-28.327 0-52.856 16.578-64.396 40.54h234.889c-7.816-12.297-13.665-25.958-17.104-40.54z" fill="#ff8e39"/><path d="m1512.451 1624.223c-3.176 0-6.339-.019-9.507-.057-104.567-1.267-204.593-23.558-297.673-66.28-1.947 14.396-3.217 26.399-3.217 33.035 0 233.692 190.123 423.814 423.816 423.814 209.051 0 383.227-152.144 417.637-351.517-30.724 30.483-69.844 57.453-115.253 78.822-62.438 29.382-128.945 44.575-189.063 44.575-36.373 0-70.405-5.56-99.792-16.902-15.915-6.143-23.836-24.023-17.694-39.938 6.143-15.915 24.021-23.837 39.938-17.693 61.804 23.853 156.131 13.673 240.308-25.938 71.703-33.742 123.847-82.159 144.687-133.891-4.198-28.301-12.301-57.021-21.537-83.275-37.658 23.926-127.33 75.948-247.733 113.297-89.77 27.848-178.848 41.948-264.917 41.948z" fill="#fed159"/><path d="m1483.162 2866.033c.581.059 1.157.139 1.728.23 4.156.546 8.341.967 12.552 1.243 4.202.276 25.785.265 29.994-.016 15.135-1.009 29.776-3.757 43.808-8.131.793-.292 1.604-.544 2.427-.771 56.98-18.624 103.641-64.378 131.65-130.734l42.679-101.583c.037-.2.069-.402.11-.601.052-.259.114-.514.173-.771.052-.227.101-.455.158-.681.064-.253.138-.503.208-.755.063-.226.123-.453.192-.677.075-.247.16-.49.241-.735.075-.225.147-.452.227-.675.086-.239.18-.475.272-.712.087-.224.17-.45.262-.673.096-.233.201-.461.302-.691.098-.222.193-.445.297-.665.106-.226.221-.447.332-.67.11-.219.216-.44.331-.656.116-.218.24-.432.361-.648s.239-.433.365-.646c.125-.211.258-.416.387-.624.133-.212.262-.426.4-.635.133-.202.274-.399.412-.598.05-.072.098-.145.149-.216l106.528-253.552c6.608-15.728 24.714-23.119 40.44-16.513 15.728 6.607 23.12 24.714 16.513 40.44l-79.798 189.931c249.724-118.06 407.323-363.8 407.323-644.69 0-169.565-54.729-330.429-153.068-457.185 6.81 22.144 12.603 45.478 16.245 68.877 2.282 5.217 3.129 11.074 2.242 16.947 1.193 10.993 1.856 21.941 1.856 32.723 0 65.541-12.844 129.137-38.173 189.023-24.459 57.827-59.468 109.755-104.054 154.341-44.586 44.585-96.514 79.594-154.341 104.053-59.886 25.33-123.482 38.173-189.022 38.173s-129.137-12.843-189.023-38.173c-57.828-24.459-109.755-59.467-154.341-104.053s-79.595-96.514-104.054-154.341c-17.753-41.973-29.364-85.771-34.727-130.782-30.239 37.627-72.086 66.492-120.117 82.429-27.205 9.026-55.295 13.535-82.998 13.535-29.534 0-58.63-5.119-85.79-15.344-36.281-13.659-67.784-35.739-93.367-65.097v332.565c0 17.538.89 34.882 2.596 52.015 4.329 29.61 9.697 59.192 16.318 88.074 56.552 207.708 232.065 375.113 418.597 459.484l-80.307-194.448c-6.512-15.768.991-33.828 16.758-40.34 15.768-6.512 33.828.992 40.339 16.758l151.296 366.332c26.838 64.98 87.143 111.219 156.112 120.909z" fill="#fff"/><path d="m2349.152 1754.515c-4.93 0-9.928-1.182-14.575-3.676-15.032-8.065-20.68-26.789-12.615-41.821 27.12-50.549 60.315-128.877 66.462-217.535-7.136-35.826-15.665-68.886-24.74-98.859-11.091 37.986-27.159 72.246-42.713 99.997-5.663 10.103-16.159 15.791-26.973 15.791-5.113 0-10.296-1.271-15.073-3.949-14.881-8.34-20.183-27.165-11.843-42.045 28.863-51.497 59.993-128.44 45.358-203.694-3.82-8.12-7.583-15.816-11.248-23.071-1.908 1.419-3.95 2.707-6.134 3.83-69.479 35.72-132.531 90.769-183.93 160.27 15.283 17.499 29.824 35.771 43.529 54.749 32.027 44.35 59.618 92.621 82.006 143.471 22.511 51.131 39.823 105.014 51.455 160.154 11.84 56.124 17.843 113.802 17.843 171.432 0 101.847-19.115 200.53-56.052 292.072 101.147-153.629 158.685-335.564 158.685-526.119 0-8.524-.109-16.962-.313-25.321-10.434 25.849-21.558 48.786-31.884 68.033-5.571 10.384-16.231 16.291-27.245 16.291z" fill="#fed159"/><path d="m906.09 1246.979c-1.439 0-2.61 1.171-2.61 2.61 0 1.44 1.171 2.612 2.61 2.612s2.61-1.172 2.61-2.612-1.171-2.61-2.61-2.61z" fill="#fff"/><path d="m1085.985 1256.01c-11.75-89.236-88.485-156.529-178.492-156.529-99.395 0-180.259 80.865-180.259 180.261 0 5.229.693 20.533 1.607 38.271.003.051.005.102.008.154.869 16.865 1.937 35.906 2.8 50.592.036.604.053 1.208.053 1.813 0 55.782 9.197 109.927 27.39 161.526.382.918.721 1.857 1.014 2.817 4.86 13.516 10.329 26.858 16.424 40.004 48.18 103.912 149.04 124.114 227.624 98.041 79.169-26.269 148.463-103.308 124.804-216.205l-40.05-191.1c-1.463-2.965-2.47-6.208-2.923-9.645zm-179.895 52.744c-32.624 0-59.166-26.542-59.166-59.166 0-32.623 26.542-59.164 59.166-59.164s59.166 26.541 59.166 59.164c-.001 32.624-26.542 59.166-59.166 59.166z" fill="#fff"/><path d="m676.029 1453.03-45.981 72.327h61.963c-6.972-23.699-12.306-47.829-15.982-72.327z" fill="#ff8e39"/><path d="m670.414 1394.052-65.053 102.326c-4.437 7.213-5.294 14.375-2.351 19.667 3.293 5.918 10.934 9.312 20.965 9.312h6.072l45.981-72.327c-2.916-19.439-4.79-39.11-5.614-58.978z" fill="#fff"/><path d="m821.98 1053.193c26.968-10.166 55.83-15.488 85.513-15.488 42.022 0 82.922 10.911 118.939 31.286 2.247-18.544 7.717-34.639 14.488-48.234-27.551-16.194-58.719-24.68-91.2-24.68-52.419.001-96.376 20.318-127.74 57.116z" fill="#ff8e39"/><path d="m1067.598 982.59c.482-.515.963-1.031 1.444-1.533-7.534-3.802-15.253-7.168-23.116-10.135 7.403 3.474 14.633 7.373 21.672 11.668z" fill="#ff8e39"/><path d="m665.459 1279.742c0-6.451.262-12.86.759-19.223h-76.932c-21.731 0-41.022 11.062-52.111 28.275h128.494c-.134-3.837-.21-6.955-.21-9.052z" fill="#fed159"/><path d="m961.183 955.573c-89.503 0-155.893 53.687-191.988 125.47 16.451-11.503 34.165-20.831 52.784-27.85 31.365-36.798 75.321-57.115 127.741-57.115 32.481 0 63.649 8.486 91.2 24.68 3.992-8.016 8.435-15.167 12.933-21.438 4.445-6.196 9.103-11.763 13.745-16.73-7.04-4.295-14.269-8.193-21.672-11.668-26.8-10.112-55.364-15.349-84.743-15.349z" fill="#fff"/><path d="m589.285 1260.519h76.932c.46-5.896 1.13-11.749 2.009-17.55h-94.937c-31.317 0-58.312 18.864-70.218 45.825h34.104c11.088-17.213 30.38-28.275 52.11-28.275z" fill="#fff"/><path d="m906.09 1190.425c-32.624 0-59.166 26.541-59.166 59.164 0 32.624 26.542 59.166 59.166 59.166s59.166-26.542 59.166-59.166c-.001-32.624-26.542-59.164-59.166-59.164zm0 61.775c-1.439 0-2.61-1.172-2.61-2.612 0-1.439 1.171-2.61 2.61-2.61s2.61 1.171 2.61 2.61c0 1.44-1.171 2.612-2.61 2.612z" fill="#333"/><path d="m2295.059 1239.483c2.184-1.123 4.226-2.412 6.134-3.83-13.807-27.327-26.236-48.426-35.132-62.583-76.544 39.172-145.011 100.687-199.828 179.603 15.582 14.957 30.568 30.675 44.896 47.08 51.398-69.502 114.45-124.55 183.93-160.27z" fill="#fff"/><path d="m1476.465 1557.084c-91.667-1.111-179.976-17.723-263.435-49.465-2.877 17.093-5.698 35.022-7.759 50.267 93.08 42.722 193.106 65.013 297.673 66.28 3.167.038 6.331.057 9.507.057 86.068 0 175.146-14.101 264.917-41.948 120.403-37.35 210.075-89.371 247.733-113.297-7.984-22.695-16.812-43.542-24.699-60.684-46.981 27.883-130.486 71.888-237.193 104.99-97.322 30.19-193.79 44.932-286.744 43.8z" fill="#fff"/><path d="m3037.734 3214.809h-2160.09c-23.699 0-46.442 10.065-62.398 27.616-16.172 17.788-23.809 40.898-21.503 65.074 4.059 42.574 43.087 75.924 88.853 75.924h2155.14c46.486 0 84.305-37.82 84.305-84.307-.002-46.487-37.82-84.307-84.307-84.307z" fill="#8ccbff"/><path d="m3201.697 616.013c-7.641 13.397-22.042 22.075-37.933 22.076-2.077 0-4.177-.148-6.293-.453-32.66-4.708-64.574-6.126-95.444-4.48 4.127 5.251 6.596 11.868 6.596 19.065v43.176c0 17.059-13.829 30.888-30.888 30.888s-30.888-13.829-30.888-30.888v-43.176c0-4.729 1.066-9.208 2.966-13.214-62.66 10.817-119.853 34.837-168.726 69.96l16.665 18.539c11.404 12.687 10.364 32.216-2.322 43.62-5.9 5.304-13.283 7.917-20.639 7.917-8.459 0-16.881-3.453-22.98-10.239l-17.901-19.915c-28.048 27.815-52.112 60.078-71.388 96.205l12.255 3.533c16.392 4.725 25.849 21.844 21.123 38.235-3.901 13.533-16.251 22.339-29.664 22.339-2.833 0-5.713-.393-8.571-1.217l-20.374-5.874c-10.25 28.579-17.833 58.993-22.45 91.025-.663 4.598-1.252 9.18-1.786 13.748h24.471c17.059 0 30.888 13.829 30.888 30.888s-13.829 30.888-30.888 30.888h-27.793c.588 56.44 11.297 109.69 30.839 157.995 5.755-7.879 14.974-12.677 24.928-12.677h.085l618.032 1.698c11.928.033 22.771 6.931 27.856 17.722 5.084 10.791 3.501 23.544-4.067 32.764-39.789 48.47-89.47 89.388-143.67 118.329-59.213 31.617-123.274 48.33-185.258 48.33-67.6 0-132.178-15.539-191.94-46.184-31.183-15.99-60.392-36.005-86.747-59.275 63.213 78.087 156.654 131.987 270.552 148.406 15.045 2.169 27.185 11.761 33.259 24.53 240.383-13.458 431.823-213.269 431.823-456.96-.002-194.618-122.107-361.25-293.728-427.324zm133.278 234.264 46.548-13.42c16.393-4.725 33.511 4.731 38.235 21.122 4.726 16.391-4.731 33.51-21.122 38.235l-46.548 13.42c-2.857.824-5.739 1.217-8.571 1.217-13.414 0-25.763-8.805-29.664-22.339-4.726-16.39 4.731-33.509 21.122-38.235zm-118.329-122.999 33.406-35.736c11.65-12.461 31.196-13.121 43.657-1.471 12.462 11.649 13.12 31.195 1.472 43.657l-33.406 35.736c-6.082 6.505-14.317 9.795-22.571 9.795-7.557 0-15.13-2.756-21.086-8.324-12.463-11.649-13.121-31.195-1.472-43.657zm156.384 420.467c-4.11 13.242-16.316 21.74-29.489 21.74-3.034 0-6.116-.45-9.166-1.397l-189.206-58.729c-22.229 36.041-62.071 60.117-107.435 60.117-69.553 0-126.138-56.585-126.138-126.138s56.585-126.137 126.138-126.137c69.552 0 126.137 56.585 126.137 126.137 0 2.376-.072 4.736-.203 7.08l189.019 58.671c16.292 5.057 25.401 22.364 20.343 38.656zm49.064-79.084h-43.637c-17.059 0-30.888-13.829-30.888-30.888s13.829-30.888 30.888-30.888h43.637c17.059 0 30.888 13.829 30.888 30.888s-13.83 30.888-30.888 30.888z" fill="#8ccbff"/><path d="m2588.295 980.661c7.202-49.959 20.533-97.26 39.758-141.28-30.714 61.445-48.009 130.719-48.009 203.957 0 18.948 1.166 37.629 3.414 55.979-2.512-38.781-.948-78.525 4.837-118.656z" fill="#8ccbff"/><path d="m3026.702 1562.682c-2.516-.052-5.03-.119-7.54-.206 1.677.192 3.344.289 4.996.289.853.001 1.7-.033 2.544-.083z" fill="#fff"/><path d="m3030.342 1475.768c-113.898-16.42-207.339-70.319-270.552-148.406-21.805-19.252-41.659-40.729-59.044-64.02-6.999-9.377-8.099-21.905-2.839-32.359.771-1.532 1.672-2.97 2.664-4.327-19.542-48.305-30.25-101.556-30.839-157.995h-16.36c-17.059 0-30.888-13.829-30.888-30.888s13.829-30.888 30.888-30.888h19.682c.533-4.568 1.123-9.149 1.786-13.748 4.618-32.032 12.2-62.446 22.45-91.025l-20.457-5.898c-16.392-4.725-25.849-21.844-21.123-38.235s21.844-25.851 38.235-21.123l28.576 8.238c19.276-36.127 43.341-68.39 71.388-96.205l-14.03-15.607c-11.404-12.687-10.364-32.216 2.322-43.62 12.686-11.403 32.215-10.365 43.619 2.322l15.266 16.983c48.873-35.123 106.066-59.143 168.726-69.96 4.953-10.447 15.592-17.673 27.922-17.673 9.861 0 18.637 4.627 24.292 11.823 30.87-1.647 62.784-.228 95.444 4.48 2.116.305 4.216.453 6.293.453 15.891-.001 30.292-8.68 37.933-22.076-50.927-19.607-106.211-30.365-163.962-30.365-179.133 0-334.557 103.445-409.681 253.734-19.225 44.02-32.556 91.32-39.758 141.28-5.785 40.131-7.349 79.875-4.837 118.656 27.691 226.063 220.854 401.712 454.277 401.712 8.681 0 17.303-.252 25.866-.731-6.075-12.771-18.214-22.363-33.259-24.532z" fill="#fff"/><path d="m3037.734 978.977c-35.489 0-64.362 28.873-64.362 64.362 0 35.49 28.873 64.362 64.362 64.362 17.233 0 32.894-6.821 44.458-17.89l-54.684-16.974c-16.292-5.057-25.4-22.363-20.343-38.655s22.366-25.399 38.655-20.343l55.063 17.091c-5.799-29.571-31.904-51.953-63.149-51.953z" fill="#ff8e39"/><path d="m3516.363 841.13c-26.165-61.861-63.616-117.412-111.313-165.109s-103.247-85.148-165.108-111.313c-64.062-27.096-132.095-40.835-202.208-40.835-70.114 0-138.147 13.739-202.21 40.835-61.861 26.166-117.411 63.617-165.108 111.313s-85.147 103.248-111.313 165.109c-27.096 64.062-40.835 132.095-40.835 202.208s13.739 138.146 40.835 202.208c26.165 61.862 63.615 117.412 111.313 165.109 47.697 47.697 103.247 85.148 165.108 111.313 16.513 6.984 33.292 13.074 50.3 18.277 9.359 63.944 58.27 115.217 121.022 128.084v1484.703h-1255.847c-3.317-17.955-11.023-40.257-28.371-59.927-23.477-26.62-57.659-40.885-101.596-42.396-.354-.013-.708-.019-1.062-.019h-7.183v-140.891c19.711-8.356 38.417-19.258 55.695-32.554 40.129-30.882 71.672-73.063 93.771-125.418l40.344-96.024c9.91-3.736 19.728-7.668 29.455-11.784 81.064-33.647 157.618-77.417 228.095-130.476 82.729-62.282 155.363-136.053 215.887-219.262 127.136-174.79 194.336-381.842 194.336-598.772 0-70.173-6.667-140.292-19.827-208.886-.045-3.903-.82-7.647-2.204-11.095-1.317-6.502-2.671-12.994-4.105-19.466-13.879-62.626-33.237-123.935-57.536-182.221-41.634-99.867-83.283-156.261-85.036-158.613-8.62-11.566-24.1-15.628-37.284-9.78-100.531 44.566-189.512 122.203-257.485 224.627l-2.482 2.615c-16.29 11.097-117.807 77.935-261.354 122.163-192.317 59.254-371.626 54.074-533.651-15.273-3.942-3.321-8.765-5.705-14.193-6.721-.525-.098-1.049-.183-1.572-.253-2.45-1.12-4.896-2.253-7.338-3.402l-38.47-183.563c-.418-1.996-1.024-3.914-1.796-5.735-7.01-42.196-25.115-81.633-52.215-114.418-11.181-33.658-8.157-63.399 9.036-88.461 13.932-20.309 32.52-30.93 34.008-31.759 9.534-4.819 15.7-14.123 16.63-24.773.934-10.689-3.953-20.992-12.57-27.386-52.288-38.803-114.441-59.313-179.741-59.313-79.882 0-153.305 34.968-206.742 98.462-24.75 29.408-44.113 63.493-57.552 101.309-10.062 28.311-16.421 57.673-19.01 87.625h-104.592c-76.363 0-138.488 62.125-138.488 138.488 0 17.059 13.829 30.888 30.888 30.888h159.167l-71.733 112.833c-.061.095-.121.19-.18.286-16.426 26.473-17.89 57.273-3.916 82.391 14.302 25.706 42.32 41.053 74.948 41.053h75.703v410.117c0 77.132 15.208 153.939 45.199 228.289 28.057 69.553 68.561 135.886 120.387 197.158 95.956 113.446 225.778 203.346 366.796 254.26l37.893 91.751c31.823 77.051 99.561 134.001 179.139 153.577v128.408h-149.852c-62.826 0-115.625 43.725-129.584 102.341h-292.012c-41.064 0-80.467 17.436-108.106 47.835-27.62 30.379-41.212 71.381-37.292 112.494 3.496 36.672 21.282 70.397 50.082 94.967 27.87 23.775 63.479 36.869 100.268 36.869h2155.14c80.549 0 146.08-65.532 146.08-146.082 0-69.955-49.429-128.573-115.192-142.786v-1488c62.751-12.867 111.662-64.14 121.021-128.084 17.008-5.203 33.787-11.293 50.299-18.277 61.861-26.165 117.411-63.616 165.108-111.313 47.696-47.697 85.147-103.248 111.313-165.109 27.096-64.062 40.835-132.095 40.835-202.208s-13.741-138.146-40.837-202.208zm-452.763 659.168c-8.563.479-17.185.731-25.866.731-233.423 0-426.586-175.648-454.277-401.712-2.248-18.351-3.414-37.031-3.414-55.979 0-73.238 17.295-142.512 48.009-203.957 75.125-150.288 230.548-253.734 409.681-253.734 57.751 0 113.035 10.758 163.962 30.365 171.621 66.074 293.726 232.706 293.726 427.326.002 243.691-191.437 443.502-431.821 456.96zm-25.866 1883.125h-2155.139c-45.766 0-84.794-33.35-88.853-75.924-2.306-24.176 5.332-47.286 21.503-65.074 15.957-17.551 38.7-27.616 62.398-27.616h2160.091c46.486 0 84.305 37.82 84.305 84.308 0 46.486-37.818 84.306-84.305 84.306zm-1738.493-270.955h153.389c3.439 14.583 9.288 28.243 17.103 40.54h-234.889c11.541-23.962 36.071-40.54 64.397-40.54zm-123.486-733.675c-6.511-15.766-24.571-23.27-40.339-16.758-15.767 6.512-23.27 24.572-16.758 40.34l80.307 194.448c-186.532-84.372-362.045-251.776-418.597-459.484-7.795-28.63-13.326-58.025-16.318-88.074-1.706-17.134-2.596-34.477-2.596-52.015v-332.565c25.584 29.359 57.086 51.438 93.367 65.097 27.16 10.225 56.256 15.344 85.79 15.344 27.703 0 55.793-4.508 82.998-13.535 48.03-15.937 89.877-44.802 120.117-82.429 5.363 45.011 16.973 88.808 34.727 130.782 24.459 57.827 59.468 109.755 104.054 154.341 44.586 44.585 96.514 79.594 154.341 104.053 59.886 25.33 123.483 38.173 189.023 38.173s129.137-12.843 189.022-38.173c57.827-24.459 109.755-59.467 154.341-104.053s79.595-96.514 104.054-154.341c25.329-59.886 38.173-123.483 38.173-189.023 0-10.783-.663-21.73-1.856-32.723.886-5.872.04-11.73-2.242-16.947-3.642-23.399-9.436-46.733-16.245-68.877 98.339 126.755 153.068 287.619 153.068 457.185 0 280.89-157.599 526.631-407.323 644.69l79.798-189.931c6.607-15.727-.785-33.833-16.513-40.44-15.726-6.606-33.833.785-40.44 16.513l-106.528 253.552c-.05.071-.099.144-.149.216-.138.199-.279.396-.412.598-.138.209-.268.423-.4.635-.13.208-.263.413-.387.624-.126.213-.244.43-.365.646s-.245.43-.361.648c-.115.217-.221.437-.331.656-.112.223-.226.445-.332.67-.103.22-.198.443-.297.665-.102.23-.206.458-.302.691-.092.222-.176.448-.262.673-.092.237-.186.473-.272.712-.08.224-.152.45-.227.675-.081.245-.166.488-.241.735-.068.224-.128.451-.192.677-.071.251-.144.501-.208.755-.057.226-.106.454-.158.681-.059.257-.121.513-.173.771-.041.199-.073.4-.11.601l-42.679 101.583c-28.01 66.356-74.67 112.111-131.65 130.734-.822.227-1.633.479-2.427.771-14.032 4.375-28.674 7.122-43.808 8.131-4.209.28-25.792.292-29.994.016-4.212-.277-8.396-.697-12.552-1.243-.571-.091-1.147-.171-1.728-.23-68.969-9.689-129.274-55.928-156.111-120.908zm1232.84-683.282c0 190.555-57.539 372.49-158.685 526.119 36.937-91.542 56.052-190.225 56.052-292.072 0-57.629-6.003-115.308-17.843-171.432-11.632-55.14-28.944-109.023-51.455-160.154-22.388-50.85-49.979-99.121-82.006-143.471-13.705-18.977-28.246-37.25-43.529-54.749-14.328-16.405-29.314-32.123-44.896-47.08 54.818-78.917 123.284-140.432 199.828-179.603 8.896 14.157 21.325 35.256 35.132 62.583 3.666 7.255 7.428 14.951 11.248 23.071 14.635 75.253-16.495 152.197-45.358 203.694-8.34 14.88-3.038 33.705 11.843 42.045 4.777 2.678 9.96 3.949 15.073 3.949 10.813 0 21.31-5.688 26.973-15.791 15.554-27.751 31.621-62.011 42.713-99.997 9.075 29.973 17.604 63.033 24.74 98.859-6.147 88.658-39.342 166.986-66.462 217.535-8.064 15.032-2.417 33.756 12.615 41.821 4.647 2.494 9.646 3.676 14.575 3.676 11.014 0 21.674-5.907 27.245-16.291 10.326-19.247 21.45-42.184 31.884-68.033.203 8.359.313 16.797.313 25.321zm-1784.619-170.154c-10.031 0-17.672-3.394-20.965-9.312-2.944-5.292-2.086-12.453 2.351-19.667l65.053-102.326c.825 19.868 2.699 39.538 5.615 58.978 3.676 24.498 9.01 48.628 15.982 72.327h-61.963zm1376.426-117.063c7.888 17.142 16.716 37.989 24.699 60.684 9.236 26.255 17.338 54.974 21.537 83.275-20.839 51.732-72.983 100.149-144.687 133.891-84.176 39.611-178.503 49.791-240.308 25.938-15.917-6.144-33.795 1.779-39.938 17.693-6.142 15.915 1.779 33.795 17.694 39.938 29.387 11.342 63.418 16.902 99.792 16.902 60.119 0 126.625-15.193 189.063-44.575 45.409-21.369 84.528-48.339 115.253-78.822-34.41 199.373-208.586 351.517-417.637 351.517-233.693 0-423.816-190.123-423.816-423.814 0-6.635 1.27-18.638 3.217-33.035 2.062-15.245 4.882-33.174 7.759-50.267 83.459 31.743 171.767 48.354 263.435 49.465 92.954 1.132 189.422-13.61 286.744-43.8 106.708-33.102 190.212-77.107 237.193-104.99zm-871.444 48.46c23.66 112.896-45.634 189.936-124.804 216.205-78.584 26.073-179.443 5.872-227.624-98.041-6.095-13.146-11.564-26.489-16.424-40.004-.293-.96-.633-1.9-1.014-2.817-18.193-51.599-27.39-105.744-27.39-161.526 0-.604-.018-1.209-.053-1.813-.863-14.686-1.931-33.727-2.8-50.592-.002-.051-.005-.103-.008-.154-.914-17.738-1.607-33.042-1.607-38.271 0-99.396 80.864-180.261 180.259-180.261 90.007 0 166.742 67.292 178.492 156.529.453 3.438 1.459 6.681 2.923 9.645zm-61.36-474.164c-4.642 4.968-9.301 10.534-13.745 16.73-4.498 6.271-8.94 13.421-12.933 21.438-6.771 13.595-12.241 29.689-14.488 48.234-36.018-20.375-76.918-31.286-118.939-31.286-29.683 0-58.545 5.322-85.513 15.488-18.619 7.019-36.333 16.347-52.784 27.85 36.095-71.783 102.485-125.47 191.988-125.47 29.379 0 57.943 5.237 84.743 15.348 7.864 2.967 15.583 6.333 23.116 10.135-.481.502-.963 1.017-1.445 1.533zm-564.527 306.204c11.907-26.961 38.901-45.825 70.218-45.825h94.937c-.879 5.802-1.548 11.655-2.009 17.55-.497 6.362-.759 12.772-.759 19.223 0 2.097.076 5.215.209 9.052h-128.493zm1078.829 1823.674h37.518c25.795.971 44.824 8.083 56.561 21.141 5.376 5.982 8.913 12.812 11.233 19.399h-98.667-6.645c-39.167 0-71.032-31.865-71.032-71.032v-152.493c.397 0 .794.001 1.191.001 7.933 0 15.946-.119 19.486-.354 6.535-.436 13.027-1.13 19.466-2.065v154.517c.001 17.057 13.83 30.886 30.889 30.886zm1455.834-1502.791c-36.953 0-68.869-21.958-83.399-53.509 21.35 3.441 42.978 5.547 64.827 6.308 2.51.087 5.024.154 7.54.206 3.672.076 7.349.122 11.032.122 28.177 0 56.016-2.224 83.398-6.637-14.529 31.552-46.446 53.51-83.398 53.51z" fill="#333"/><path d="m3038.478 1371.046c81.305 0 164.587-34.22 232.541-93.792l-476.295-1.309c65.802 61.061 151.714 95.101 243.754 95.101z" fill="#ff8e39"/><g fill="#333"><path d="m2700.746 1263.342c17.384 23.29 37.239 44.768 59.044 64.02 26.356 23.27 55.564 43.286 86.747 59.275 59.763 30.646 124.341 46.184 191.94 46.184 61.983 0 126.045-16.712 185.258-48.33 54.2-28.941 103.881-69.858 143.67-118.329 7.568-9.22 9.151-21.974 4.067-32.764-5.085-10.791-15.929-17.688-27.856-17.722l-618.032-1.698c-.028 0-.057 0-.085 0-9.954 0-19.173 4.798-24.928 12.677-.992 1.357-1.893 2.795-2.664 4.327-5.26 10.455-4.16 22.983 2.839 32.36zm337.732 107.704c-92.04 0-177.951-34.04-243.754-95.101l476.295 1.309c-67.955 59.572-151.237 93.792-232.541 93.792z"/><path d="m3037.734 621.334c-12.33 0-22.969 7.227-27.922 17.673-1.9 4.007-2.966 8.485-2.966 13.214v43.176c0 17.059 13.829 30.888 30.888 30.888s30.888-13.829 30.888-30.888v-43.176c0-7.197-2.469-13.814-6.596-19.065-5.655-7.194-14.43-11.822-24.292-11.822z"/><path d="m2622.484 1037.773c0 17.059 13.829 30.888 30.888 30.888h16.36 27.793c17.059 0 30.888-13.829 30.888-30.888s-13.829-30.888-30.888-30.888h-24.471-19.682c-17.059 0-30.888 13.829-30.888 30.888z"/><path d="m2655.71 857.98c-4.726 16.391 4.731 33.51 21.123 38.235l20.457 5.898 20.374 5.874c2.858.824 5.738 1.217 8.571 1.217 13.413 0 25.763-8.807 29.664-22.339 4.726-16.391-4.731-33.51-21.123-38.235l-12.255-3.533-28.576-8.238c-16.391-4.73-33.509 4.73-38.235 21.121z"/><path d="m2782.202 689.663c-12.687 11.404-13.727 30.933-2.322 43.62l14.03 15.607 17.901 19.915c6.1 6.786 14.521 10.239 22.98 10.239 7.355 0 14.738-2.613 20.639-7.917 12.687-11.404 13.727-30.934 2.322-43.62l-16.665-18.539-15.266-16.983c-11.404-12.687-30.933-13.725-43.619-2.322z"/><path d="m3422.094 1006.885h-43.637c-17.059 0-30.888 13.829-30.888 30.888s13.829 30.888 30.888 30.888h43.637c17.059 0 30.888-13.829 30.888-30.888s-13.83-30.888-30.888-30.888z"/><path d="m3343.517 910.852c2.832 0 5.714-.393 8.571-1.217l46.548-13.42c16.391-4.726 25.848-21.844 21.122-38.235-4.725-16.391-21.843-25.847-38.235-21.122l-46.548 13.42c-16.391 4.726-25.848 21.844-21.122 38.235 3.901 13.533 16.25 22.339 29.664 22.339z"/><path d="m3218.117 770.935c5.956 5.568 13.529 8.324 21.086 8.324 8.254 0 16.489-3.29 22.571-9.795l33.406-35.736c11.648-12.462 10.99-32.008-1.472-43.657-12.461-11.649-32.007-10.99-43.657 1.471l-33.406 35.736c-11.648 12.462-10.99 32.008 1.472 43.657z"/><path d="m3352.688 1109.089-189.019-58.671c.13-2.344.203-4.704.203-7.08 0-69.552-56.585-126.137-126.137-126.137-69.553 0-126.138 56.585-126.138 126.137s56.585 126.138 126.138 126.138c45.364 0 85.206-24.076 107.435-60.117l189.206 58.729c3.05.947 6.132 1.397 9.166 1.397 13.173 0 25.379-8.498 29.489-21.74 5.057-16.292-4.052-33.599-20.343-38.656zm-306.867-95.25c-16.289-5.057-33.599 4.05-38.655 20.343-5.058 16.292 4.051 33.599 20.343 38.655l54.684 16.974c-11.564 11.068-27.225 17.89-44.458 17.89-35.489 0-64.362-28.873-64.362-64.362s28.873-64.362 64.362-64.362c31.245 0 57.349 22.383 63.149 51.954z"/></g></g></svg>