<svg id="_x30_6_Farming_Feeding_1_" enable-background="new 0 0 512 512" height="512" viewBox="0 0 512 512" width="512" xmlns="http://www.w3.org/2000/svg"><g id="_x30_6_Farming_Feeding"><g id="_x30_6_farming_feeding_1_"><path d="m402.1 131.7c0 67-65.4 121.3-146.2 121.3-80.7 0-146.1-54.3-146.1-121.3 0-66.9 146.1-121.2 146.1-121.2s146.2 54.3 146.2 121.2" fill="#ffb800"/><path d="m446.8 472.2c0 7.5-2.9 14.8-8.6 20.5-11.3 11.3-29.6 11.3-41 0l-13-13c-67.3 28.9-189.1 28.9-256.4 0l-13 13c-11.3 11.3-29.6 11.3-41 0-11.7-11.7-11.1-29.9 0-41.1l9.4-9.4c-40.1-82.5 11.2-297.8 11.2-297.8 107.7 51.9 215.4 51.9 323.1 0 0 0 51.4 215.1 11.2 297.7l9.5 9.5c5.6 5.7 8.6 13.2 8.6 20.6" fill="#fff"/><path d="m256 226.4c-53.5 0-107-10.2-160.3-30.5-22.5-8.6-32.9-34.7-22.5-56.4 9.2-19 31.4-28.4 51.1-20.8 88.3 34 175 34 263.2 0 19.7-7.6 42 1.8 51.1 20.8 10.5 21.7.1 47.8-22.4 56.4-53.2 20.3-106.7 30.5-160.2 30.5" fill="#fff"/><path d="m311.1 349.8c0 30.4-24.7 55.1-55.1 55.1s-55-24.7-55-55.1 24.7-55 55-55 55.1 24.6 55.1 55" fill="#ffb800"/><g><path d="m445.6 444.3-4.5-4.5c25-62.2 9.5-178.8-2.9-246.2 15.9-16.1 18.9-39.7 9.8-58.7-8-16.7-24.2-27.3-41.5-29.1-26.2-58.6-133.2-100-147-105.1-2.4-.9-4.9-.9-7.3 0-13.7 5.1-120.7 46.5-147 105.2-17.3 1.7-33.4 12.3-41.5 29.1-.1.1-.1.2-.2.3-9.1 19.1-5.7 42.5 10 58.4-12.3 67.5-27.8 184.1-2.9 246.3l-4.3 4.3c-15.1 15.2-15.8 40 0 55.8 15.4 15.3 40.4 15.3 55.7 0l8.1-8.1c34.6 13.3 80.1 20 125.7 20s91.1-6.7 125.7-20l8.2 8.1c15.4 15.3 40.5 15.3 55.8 0 15.7-15.6 15.5-40.5.1-55.8zm-189.7-422.7c34.3 13.3 106.2 48.2 128.7 87-.3.1-.6.2-.9.3-86 33.2-169.6 33.1-255.7 0-.3-.1-.6-.2-.9-.3 22.7-38.8 94.5-73.7 128.8-87zm-173.3 122.4c0-.1.1-.2.1-.3 6.9-14.1 23.5-20.8 37.8-15.3 91.1 35.1 179.7 35.1 270.7 0 14.4-5.6 31.1 1.3 38 15.6 7.8 16.2.1 35.7-16.8 42.1-51.7 19.8-104.4 29.8-156.4 29.8-52.1 0-104.7-10-156.6-29.9-16.8-6.3-24.6-25.7-16.8-42zm348.2 341.3c-7.2 7.2-19 7.2-26.3 0l-13-13c-3-3-7.6-3.9-11.5-2.2-64.9 27.9-183.2 27.9-248.1 0-4-1.7-8.5-.8-11.5 2.2l-13 13c-7.2 7.2-19 7.2-26.2 0-7.5-7.5-7.2-19.1 0-26.3l9.4-9.4c3.1-3.1 4-7.9 2-12-25.3-52.1-11.8-163 .2-231.8 54 20.5 108.9 30.9 163.2 30.9s109.2-10.4 163.1-30.9c12 68.7 25.6 179.5.1 231.7-2 4-1.1 8.8 2 12l9.5 9.5c7.3 7.2 7.6 18.9.1 26.3z"/><path d="m256 284.3c-36.1 0-65.5 29.4-65.5 65.5s29.4 65.5 65.5 65.5 65.5-29.4 65.5-65.5-29.4-65.5-65.5-65.5zm0 110.1c-24.6 0-44.6-20-44.6-44.6s20-44.6 44.6-44.6 44.6 20 44.6 44.6-20 44.6-44.6 44.6z"/></g></g></g></svg>