<svg enable-background="new 0 0 512 512" height="512" viewBox="0 0 512 512" width="512" xmlns="http://www.w3.org/2000/svg"><g id="_x34_7_Business_Chart"><g><path d="m359.244 475.724v-147.976c0-4.388-3.558-7.946-7.946-7.946h-35.286c-4.388 0-7.945 3.558-7.945 7.946v147.976z" fill="#94c1ff"/><path d="m439.903 475.724v-251.324c0-4.389-3.557-7.946-7.945-7.946h-35.286c-4.388 0-7.946 3.557-7.946 7.946v251.324z" fill="#d7e9ff"/><path d="m278.585 475.724v-182.55c0-4.388-3.557-7.945-7.946-7.945h-35.287c-4.388 0-7.946 3.557-7.946 7.945v182.55z" fill="#d7e9ff"/><path d="m197.926 475.724v-118.031c0-4.388-3.557-7.946-7.946-7.946h-35.287c-4.388 0-7.946 3.557-7.946 7.946v118.031z" fill="#94c1ff"/><path d="m117.267 475.724v-167.137c0-4.388-3.557-7.946-7.946-7.946h-35.286c-4.388 0-7.946 3.558-7.946 7.946v167.137z" fill="#d7e9ff"/><path d="m419.337 149.306-39.409-19.825c-6.433-3.236-6.069-12.54.596-15.264l31.082-12.703c4.713-1.926 10.041.754 11.304 5.687l8.327 32.529c1.786 6.975-5.467 12.812-11.9 9.576z" fill="#fff"/><path d="m471.6 488.714c0 7.174-5.816 12.99-12.99 12.99h-405.22c-7.174 0-12.99-5.816-12.99-12.99 0-7.174 5.816-12.99 12.99-12.99h405.22c7.174 0 12.99 5.816 12.99 12.99z" fill="#fff"/><path d="m146.748 122.876v-92.826c-51.26.011-92.827 41.584-92.827 92.847 0 51.229 41.578 92.807 92.848 92.807s92.807-41.578 92.807-92.807c0-.007-.001-.014-.001-.021z" fill="#94c1ff"/><path d="m257.932 103.124c-.011-51.26-41.543-92.827-92.806-92.827-.007 0-.014 0-.02 0v92.826h92.826z" fill="#d7e9ff"/><g fill="#116fff"><path d="m89.078 257.894 80.667 45.794c2.091 1.183 4.703.795 6.361-.929l77.946-81.385 77.181 40.267c2.496 1.302 5.6.383 6.979-2.08l63.448-113.295 15.331 7.711c10.427 5.24 22.205-4.21 19.313-15.545l-8.327-32.533c-2.052-7.99-10.685-12.348-18.348-9.225l-31.086 12.702c-10.826 4.43-11.397 19.521-.965 24.776l14.735 7.413-60.743 108.46-76.159-39.736c-2.057-1.064-4.574-.659-6.198 1.018l-77.844 81.28-77.124-43.785c-2.522-1.427-5.703-.539-7.132 1.966-1.425 2.511-.542 5.702 1.965 7.126zm293.197-133.083c-2.429-1.225-2.296-4.727.225-5.756l31.086-12.702c1.747-.726 3.78.264 4.263 2.142l8.327 32.528c.674 2.643-2.054 4.824-4.487 3.614v-.003z"/><path d="m476.828 488.713c0-10.044-8.173-18.218-18.22-18.218h-13.478v-246.094c0-7.265-5.907-13.174-13.171-13.174h-35.287c-7.265 0-13.177 5.909-13.177 13.174v246.094h-19.022v-142.746c0-7.265-5.912-13.174-13.177-13.174h-35.282c-7.265 0-13.177 5.909-13.177 13.174v142.747h-19.027v-177.322c0-7.262-5.907-13.171-13.171-13.171h-35.287c-7.265 0-13.171 5.909-13.171 13.171v177.322h-19.027v-112.803c0-7.265-5.907-13.174-13.171-13.174h-35.287c-7.265 0-13.177 5.909-13.177 13.174v112.802h-19.022v-161.909c0-7.265-5.912-13.174-13.177-13.174h-35.287c-7.265 0-13.171 5.909-13.171 13.174v161.909h-7.469c-10.047 0-18.22 8.173-18.22 18.218s8.173 18.218 18.22 18.218h405.216c10.046 0 18.219-8.173 18.219-18.218zm-82.878-264.312c0-1.498 1.22-2.719 2.721-2.719h35.287c1.496 0 2.716 1.22 2.716 2.719v246.094h-40.724zm-80.657 103.348c0-1.498 1.22-2.719 2.721-2.719h35.282c1.501 0 2.721 1.22 2.721 2.719v142.747h-40.724zm-80.657-34.575c0-1.498 1.22-2.716 2.716-2.716h35.287c1.496 0 2.716 1.218 2.716 2.716v177.322h-40.719zm-80.662 64.519c0-1.498 1.22-2.719 2.721-2.719h35.287c1.496 0 2.716 1.22 2.716 2.719v112.802h-40.724zm-80.657-49.107c0-1.498 1.22-2.719 2.716-2.719h35.287c1.501 0 2.721 1.22 2.721 2.719v161.909h-40.724zm-25.69 180.127c0-4.281 3.482-7.762 7.765-7.762h405.216c4.283 0 7.765 3.482 7.765 7.762 0 4.281-3.482 7.762-7.765 7.762h-405.216c-4.283.001-7.765-3.481-7.765-7.762z"/><path d="m145.352 24.823c-54.069.01-98.056 44.007-98.056 98.074 0 54.056 43.997 98.035 98.076 98.035 54.059 0 98.035-43.979 98.035-98.056 0-2.887-2.338-5.228-5.228-5.228h-87.6v-87.597c.001-2.884-2.341-5.228-5.227-5.228zm87.447 103.281c-2.701 45.878-40.883 82.373-87.427 82.373-48.316 0-87.621-39.287-87.621-87.58 0-46.549 36.492-84.741 82.373-87.462v87.442c0 2.887 2.338 5.228 5.228 5.228h87.447z"/><path d="m257.932 108.352c2.891 0 5.228-2.348 5.228-5.228-.01-54.069-43.992-98.056-98.056-98.056-2.89 0-5.228 2.341-5.228 5.228v92.828c0 2.887 2.338 5.228 5.228 5.228zm-87.6-92.675c44.14 2.601 79.6 38.062 82.219 82.219h-82.219z"/></g></g></g></svg>