<svg id="Layer_1" enable-background="new 0 0 512 512" viewBox="0 0 512 512" xmlns="http://www.w3.org/2000/svg" xmlns:xlink="http://www.w3.org/1999/xlink"><linearGradient id="SVGID_1_" gradientTransform="matrix(1 0 0 -1 0 514.83)" gradientUnits="userSpaceOnUse" x1="63.642" x2="447.792" y1="451.197" y2="67.037"><stop offset="0" stop-color="#d19500"/><stop offset="1" stop-color="#c97200"/></linearGradient><linearGradient id="lg1"><stop offset="0" stop-color="#f8da30"/><stop offset="1" stop-color="#fdab22"/></linearGradient><linearGradient id="SVGID_00000019645495662506454960000006559280035252481159_" gradientTransform="matrix(1 0 0 -1 0 514.83)" gradientUnits="userSpaceOnUse" x1="127.746" x2="470.516" xlink:href="#lg1" y1="471.391" y2="128.611"/><linearGradient id="SVGID_00000172413103008026514720000009498692889903444359_" gradientTransform="matrix(1 0 0 -1 0 514.83)" gradientUnits="userSpaceOnUse" x1="85.586" x2="428.356" xlink:href="#lg1" y1="429.231" y2="86.451"/><linearGradient id="SVGID_00000160891182949143938220000000475461540617964678_" gradientTransform="matrix(1 0 0 -1 0 514.83)" gradientUnits="userSpaceOnUse" x1="39.48" x2="382.25" xlink:href="#lg1" y1="383.115" y2="40.345"/><g id="Layer_2_00000124878069816402525500000005331762426418502313_"><g id="_Group_copy_10"><g id="Kyrgyztan"><path d="m256 68.4c54.5 0 109 3.5 163.1 10.6 31.4 4.4 64.2 34.8 70.4 65.1 7 36.9 10.5 74.3 10.5 111.9s-3.5 75-10.5 111.9c-6.2 30.3-39.1 60.7-70.4 65.1-54.1 7-108.6 10.5-163.1 10.6-54.5 0-109-3.6-163.1-10.6-31.3-4.4-64.2-34.8-70.4-65.1-14-73.9-14-149.9 0-223.8 6.2-30.3 39.1-60.6 70.4-65.1 54.1-7 108.6-10.6 163.1-10.6m0-12c-55.1 0-110.1 3.6-164.7 10.7-35.9 5-73.3 38.9-80.6 74.7-14.2 75.5-14.2 153 0 228.5 7.3 35.8 44.7 69.7 80.6 74.7 54.6 7.1 109.6 10.6 164.7 10.7 55.1 0 110.1-3.6 164.7-10.7 36-5 73.3-38.9 80.6-74.7 14.2-75.5 14.2-153 0-228.5-7.3-35.8-44.6-69.7-80.6-74.7-54.6-7.1-109.6-10.7-164.7-10.7z" fill="url(#SVGID_1_)"/><path d="m405 258.8c-3.6-.8-7.2-1.2-10.9-1.1h-39.7c-3.3 0-5.7.7-7.3 2.2-1.5 1.3-2.3 3.1-2.2 5.1 0 3.6 1.4 4.4 2 4.8 1.6 1 5 2.1 11.7 2.1h27c3.3 0 6 2.7 6 6v28c0 2.2-1.2 4.2-3.2 5.3-7.2 3.9-14.8 7.1-22.7 9.5-8 2.3-16.2 3.5-24.5 3.4-18.4 0-33-6.2-43.4-18.4-10.2-12-15.4-29-15.4-50.6-.1-9.2 1.2-18.4 3.9-27.3 2.4-7.9 6.3-15.3 11.6-21.6 5-5.9 11.3-10.6 18.5-13.7 7.6-3.2 15.8-4.8 24-4.7 8.7 0 16 1.4 21.9 4.1 5.4 2.4 10.1 5.9 14.1 10.2 4.1 5 7.9 10.3 11.3 15.8 1 1.3 2.2 2.3 3.6 3s2.9 1.1 4.5 1.1c2.8.1 5.6-1 7.6-3 2-1.7 3-4.3 3-6.9 0-3.1-1.2-6.8-3.5-11.2-2.9-5.1-6.7-9.5-11.2-13.2-5-4.2-11.6-7.8-19.8-10.6s-18-4.3-28.9-4.3c-13.3 0-25.4 2-35.8 5.8-9.8 3.5-18.8 9.1-26.2 16.4-7.3 7.4-12.8 16.3-16.2 26.1-3.9 11.2-5.8 22.9-5.6 34.8-.2 11.9 1.8 23.8 5.8 35 3.5 9.8 9.1 18.7 16.3 26.1 7.3 7.3 16.1 12.9 25.7 16.4 10.9 3.9 22.5 5.9 34.1 5.7 10.1.1 20.2-1.1 30-3.7 10-2.8 19.7-6.8 28.8-11.8 2.8-1.4 5.3-3.2 7.7-5.3 1.4-1.2 2.5-2.8 3.1-4.6.8-2.8 1.1-5.7 1-8.6v-33.1c0-5.8-1.1-8.6-2-10-1-1.6-2.7-2.8-4.7-3.2z" fill="url(#SVGID_00000019645495662506454960000006559280035252481159_)"/><path d="m469.9 148c-4.6-22-30.5-45.8-53.4-49.1-106.5-13.9-214.4-13.9-321-.1-23 3.3-48.9 27.2-53.5 49.2-13.4 71.4-13.4 144.7 0 216.1 4.6 22 30.5 45.9 53.5 49.1h.1c53.2 6.9 106.8 10.4 160.4 10.4 53.7 0 107.3-3.5 160.5-10.4 23-3.3 48.8-27.1 53.5-49.1 13.3-71.4 13.3-144.7-.1-216.1zm-229.2 197.3c-4.2 3.9-9.7 5.9-16.4 5.9-6.1 0-11.2-1.4-15.2-4.2-3.9-2.7-7.1-6.1-9.5-10.1-2.1-3.4-4-6.5-5.6-9.4l-37.2-57.3-21.5 20.6v33.1c0 8.8-2.2 15.5-6.6 20.2s-10.6 7.3-17.1 7.1c-4.1 0-8-1.1-11.5-3.1-3.6-2-6.6-5-8.6-8.6l-.1-.2c-1.5-3.1-2.4-6.4-2.6-9.8-.2-3.1-.4-7.4-.4-13.1v-128.4c0-8.5 2.1-15.2 6.1-19.8 4.3-4.9 10-7.3 17.2-7.3 6.5-.2 12.7 2.4 17.1 7.1 4.3 4.6 6.5 11.4 6.5 20v45.5l58.2-60.7c2.8-3.1 5.9-5.9 9.3-8.4 3.3-2.4 7.6-3.6 12.7-3.6 6.6 0 12.1 2 16.3 6.1 4.2 3.9 6.6 9.4 6.5 15.1 0 6.8-3.3 13.3-9.7 19.5l-38.8 36.7 46 65.9c3.1 4.3 5.9 8.9 8.3 13.6 2 4.1 3.1 8.6 3.2 13.2-.2 5.5-2.5 10.7-6.6 14.4zm183.1-40.1c.1 4.2-.4 8.4-1.6 12.4-1.3 3.7-3.5 7.1-6.4 9.7-3.1 2.7-6.4 5.1-10.1 7-9.9 5.5-20.5 9.8-31.4 12.9-10.8 2.8-21.9 4.2-33.1 4.1-13.1.1-26-2.1-38.3-6.5-11.3-4.1-21.5-10.7-30-19.2-8.4-8.6-14.9-19-19-30.4-4.4-11.7-6.6-24.8-6.6-39.1-.1-13.2 2-26.3 6.4-38.8 4-11.5 10.5-21.9 19-30.6 8.7-8.5 19.1-15.1 30.5-19.2 11.8-4.3 25.2-6.6 40-6.6 12.2 0 23.2 1.7 32.8 5s17.6 7.6 23.7 12.8c5.7 4.6 10.4 10.3 14 16.7 3.3 6.2 5 11.7 5 16.8.1 5.9-2.4 11.6-6.7 15.6-4.2 4.1-9.9 6.4-15.8 6.3-3.5 0-6.9-.8-10-2.4s-5.8-3.9-7.9-6.7l-.2-.3c-3.1-5.1-6.6-10-10.4-14.6-2.8-3.1-6.2-5.5-10-7.2-4.2-2-9.9-3-16.8-3-6.6-.2-13.2 1.1-19.3 3.6-5.4 2.4-10.3 6-14.1 10.5-4.2 5.1-7.3 11-9.1 17.4-2.3 7.7-3.4 15.7-3.3 23.7 0 18.7 4.2 33.1 12.5 42.8 8.2 9.6 19.4 14.2 34.3 14.2 7.1 0 14.2-.9 21-2.9 6-1.8 11.7-4.1 17.3-6.9v-18.3h-21c-7.7 0-13.5-1.2-17.8-3.8-3.6-2.1-8-6.5-8-15.2-.1-5.3 2.2-10.5 6.2-14 3.9-3.5 9.1-5.3 15.4-5.3h39.6c4.7-.1 9.3.4 13.9 1.5 4.7 1.2 8.9 4.1 11.6 8.1 2.8 4.1 4.2 9.6 4.2 16.8z" fill="url(#SVGID_00000172413103008026514720000009498692889903444359_)"/><path d="m225.9 311-48.9-70.1c-1.7-2.4-1.4-5.7.8-7.8l42.4-40.2c4-3.8 6-7.4 6-10.8.1-2.4-1-4.8-2.8-6.4-2-1.8-4.6-2.8-8-2.8-2-.1-4 .3-5.8 1.4-2.7 2.1-5.2 4.4-7.6 6.9l-68.6 71.5c-2.3 2.4-6.1 2.5-8.5.2-1.2-1.1-1.8-2.7-1.8-4.3v-60.6c0-5.5-1.1-9.5-3.3-11.8s-5.2-3.5-8.4-3.3c-3.6 0-6.2 1-8.1 3.2-2.1 2.4-3.2 6.4-3.2 11.9v128.2c0 5.3.1 9.4.3 12.1.1 1.8.6 3.6 1.3 5.3.9 1.7 2.3 3.1 4 4 1.7 1 3.6 1.5 5.6 1.6 3.1.2 6.2-1.1 8.3-3.3 2.2-2.3 3.3-6.3 3.3-11.9v-35.7c0-1.6.7-3.2 1.8-4.3l28.6-27.4c1.1-1.1 2.6-1.7 4.1-1.7h.7c1.8.2 3.4 1.2 4.3 2.7l41.6 63.4.1.2c1.6 2.8 3.5 5.9 5.6 9.3 1.5 2.6 3.6 4.8 6 6.5 2 1.4 4.9 2.1 8.5 2.1s6.3-.9 8.2-2.6c1.7-1.4 2.6-3.4 2.6-5.6-.1-2.8-.7-5.6-2-8.1-2-4.1-4.4-8.1-7.1-11.8z" fill="url(#SVGID_00000160891182949143938220000000475461540617964678_)"/></g></g></g></svg>