<svg id="Layer_1" enable-background="new 0 0 512 512" viewBox="0 0 512 512" xmlns="http://www.w3.org/2000/svg"><g clip-rule="evenodd" fill-rule="evenodd"><g><path d="m51.747 503h197.182c9.145-7.264 6.429-27.054 6.429-39.571v-41.899h-235.183c-4.406 0-8 3.594-8 8v33.899c.001 21.764 17.807 39.571 39.572 39.571z" fill="#ddd"/><path d="m43.681 502.166c2.606.545 5.304.833 8.067.833 21.765 0 39.571-17.807 39.571-39.571v-41.899h-16.134v41.899c0 19.003-13.574 34.987-31.504 38.738z" fill="#bdbdbd"/><path d="m417.812 503c21.765 0 39.571-17.807 39.571-39.571v-446.429c0-4.406-3.594-8-8-8h-350.065c-4.406 0-8 3.594-8 8v446.428c0 21.765-17.807 39.571-39.571 39.571h366.065z" fill="#e2e3e3"/><path d="m417.812 503c21.765 0 39.571-17.807 39.571-39.571v-446.429c0-4.406-3.594-8-8-8h-20c4.406 0 8 3.594 8 8v446.428c0 21.765-17.807 39.571-39.571 39.571h20z" fill="#d8d8d8"/></g><g><path d="m155.736 79.019h59.829c2.949 0 5.361 2.413 5.361 5.361v59.828c0 2.949-2.413 5.361-5.361 5.361h-59.829c-2.949 0-5.361-2.412-5.361-5.361v-59.827c-.001-2.949 2.412-5.362 5.361-5.362zm0 303.411h59.829c2.949 0 5.361 2.413 5.361 5.361v59.828c0 2.949-2.413 5.362-5.361 5.362h-59.829c-2.949 0-5.361-2.413-5.361-5.362v-59.828c-.001-2.948 2.412-5.361 5.361-5.361zm0-101.137h59.829c2.949 0 5.361 2.413 5.361 5.362v59.829c0 2.949-2.413 5.361-5.361 5.361h-59.829c-2.949 0-5.361-2.413-5.361-5.361v-59.829c-.001-2.949 2.412-5.362 5.361-5.362zm0-101.137h59.829c2.949 0 5.361 2.412 5.361 5.361v59.829c0 2.949-2.413 5.361-5.361 5.361h-59.829c-2.949 0-5.361-2.413-5.361-5.361v-59.829c-.001-2.948 2.412-5.361 5.361-5.361z" fill="#d8d8d8"/><path d="m145.736 69.019h59.829c2.949 0 5.361 2.413 5.361 5.361v59.828c0 2.949-2.413 5.361-5.361 5.361h-59.829c-2.949 0-5.361-2.413-5.361-5.361v-59.827c-.001-2.949 2.412-5.362 5.361-5.362zm0 303.411h59.829c2.949 0 5.361 2.413 5.361 5.361v59.828c0 2.949-2.413 5.361-5.361 5.361h-59.829c-2.949 0-5.361-2.413-5.361-5.361v-59.828c-.001-2.948 2.412-5.361 5.361-5.361zm0-101.137h59.829c2.949 0 5.361 2.413 5.361 5.362v59.829c0 2.949-2.413 5.361-5.361 5.361h-59.829c-2.949 0-5.361-2.413-5.361-5.361v-59.829c-.001-2.949 2.412-5.362 5.361-5.362zm0-101.137h59.829c2.949 0 5.361 2.413 5.361 5.361v59.829c0 2.949-2.413 5.361-5.361 5.361h-59.829c-2.949 0-5.361-2.413-5.361-5.361v-59.829c-.001-2.948 2.412-5.361 5.361-5.361z" fill="#64b5f6"/><path d="m145.736 69.019h10c-2.949 0-5.361 2.413-5.361 5.361v59.828c0 2.949 2.413 5.361 5.361 5.361h-10c-2.949 0-5.361-2.413-5.361-5.361v-59.827c-.001-2.949 2.412-5.362 5.361-5.362zm0 303.411h10c-2.949 0-5.361 2.413-5.361 5.361v59.828c0 2.949 2.413 5.361 5.361 5.361h-10c-2.949 0-5.361-2.413-5.361-5.361v-59.828c-.001-2.948 2.412-5.361 5.361-5.361zm0-101.137h10c-2.949 0-5.361 2.413-5.361 5.362v59.829c0 2.949 2.413 5.361 5.361 5.361h-10c-2.949 0-5.361-2.413-5.361-5.361v-59.829c-.001-2.949 2.412-5.362 5.361-5.362zm0-101.137h10c-2.949 0-5.361 2.413-5.361 5.361v59.829c0 2.949 2.413 5.361 5.361 5.361h-10c-2.949 0-5.361-2.413-5.361-5.361v-59.829c-.001-2.948 2.412-5.361 5.361-5.361z" fill="#42a5f5"/><path d="m185.62 403.451c3.107-3.124 8.158-3.138 11.281-.031 3.124 3.107 3.138 8.158.031 11.281l-17.098 17.258c-3.086 3.103-8.09 3.137-11.218.093l-9.538-9.296c-3.158-3.072-3.228-8.123-.156-11.281s8.123-3.228 11.281-.156l3.878 3.78zm0-303.411c3.107-3.124 8.158-3.138 11.281-.031 3.124 3.106 3.138 8.158.031 11.281l-17.098 17.258c-3.086 3.103-8.09 3.137-11.218.093l-9.538-9.296c-3.158-3.072-3.228-8.123-.156-11.281s8.123-3.228 11.281-.156l3.878 3.78zm0 101.138c3.107-3.124 8.158-3.138 11.281-.031 3.124 3.107 3.138 8.158.031 11.281l-17.098 17.258c-3.086 3.103-8.09 3.137-11.218.093l-9.538-9.296c-3.158-3.072-3.228-8.123-.156-11.281s8.123-3.228 11.281-.156l3.878 3.78zm0 101.137c3.107-3.124 8.158-3.138 11.281-.031 3.124 3.107 3.138 8.158.031 11.281l-17.098 17.258c-3.086 3.103-8.09 3.137-11.218.093l-9.538-9.296c-3.158-3.072-3.228-8.123-.156-11.281s8.123-3.228 11.281-.156l3.878 3.78z" fill="#42a5f5"/><path d="m183.312 393.451c3.106-3.124 8.158-3.138 11.281-.031 3.124 3.107 3.138 8.158.031 11.281l-17.098 17.258c-3.085 3.103-8.089 3.137-11.218.093l-9.538-9.296c-3.158-3.072-3.228-8.123-.156-11.281s8.123-3.228 11.281-.156l3.878 3.78zm0-303.411c3.106-3.124 8.158-3.138 11.281-.031 3.124 3.106 3.138 8.158.031 11.281l-17.098 17.258c-3.085 3.103-8.089 3.137-11.218.093l-9.538-9.296c-3.158-3.072-3.228-8.123-.156-11.281s8.123-3.228 11.281-.156l3.878 3.78zm0 101.138c3.106-3.124 8.158-3.138 11.281-.031 3.124 3.107 3.138 8.158.031 11.281l-17.098 17.258c-3.085 3.103-8.089 3.137-11.218.093l-9.538-9.296c-3.158-3.072-3.228-8.123-.156-11.281s8.123-3.228 11.281-.156l3.878 3.78zm0 101.137c3.106-3.124 8.158-3.138 11.281-.031 3.124 3.107 3.138 8.158.031 11.281l-17.098 17.258c-3.085 3.103-8.089 3.137-11.218.093l-9.538-9.296c-3.158-3.072-3.228-8.123-.156-11.281s8.123-3.228 11.281-.156l3.878 3.78z" fill="#eff4f7"/><path d="m367.788 388.464c4.418 0 8 3.582 8 8s-3.582 8-8 8h-100.555c-4.418 0-8-3.582-8-8s3.582-8 8-8zm0-303.411c4.418 0 8 3.582 8 8s-3.582 8-8 8h-100.555c-4.418 0-8-3.582-8-8s3.582-8 8-8zm50.539 42.485c4.418 0 8 3.582 8 8s-3.582 8-8 8h-151.094c-4.418 0-8-3.582-8-8s3.582-8 8-8zm-50.539 58.652c4.418 0 8 3.582 8 8s-3.582 8-8 8h-100.555c-4.418 0-8-3.582-8-8s3.582-8 8-8zm50.539 42.485c4.418 0 8 3.582 8 8s-3.582 8-8 8h-151.094c-4.418 0-8-3.582-8-8s3.582-8 8-8zm-50.539 58.652c4.418 0 8 3.582 8 8s-3.582 8-8 8h-100.555c-4.418 0-8-3.582-8-8s3.582-8 8-8zm50.539 42.484c4.418 0 8 3.582 8 8s-3.582 8-8 8h-151.094c-4.418 0-8-3.582-8-8s3.582-8 8-8zm0 101.137c4.418 0 8 3.582 8 8s-3.582 8-8 8h-151.094c-4.418 0-8-3.582-8-8s3.582-8 8-8z" fill="#d8d8d8"/><path d="m357.788 378.464c4.418 0 8 3.582 8 8s-3.582 8-8 8h-100.555c-4.418 0-8-3.582-8-8s3.582-8 8-8zm0-303.411c4.418 0 8 3.582 8 8s-3.582 8-8 8h-100.555c-4.418 0-8-3.582-8-8s3.582-8 8-8zm50.539 42.485c4.418 0 8 3.582 8 8s-3.582 8-8 8h-151.094c-4.418 0-8-3.582-8-8s3.582-8 8-8zm-50.539 58.652c4.418 0 8 3.582 8 8s-3.582 8-8 8h-100.555c-4.418 0-8-3.582-8-8s3.582-8 8-8zm50.539 42.485c4.418 0 8 3.582 8 8s-3.582 8-8 8h-151.094c-4.418 0-8-3.582-8-8s3.582-8 8-8zm-50.539 58.652c4.418 0 8 3.582 8 8s-3.582 8-8 8h-100.555c-4.418 0-8-3.582-8-8s3.582-8 8-8zm50.539 42.484c4.418 0 8 3.582 8 8s-3.582 8-8 8h-151.094c-4.418 0-8-3.582-8-8s3.582-8 8-8zm0 101.137c4.418 0 8 3.582 8 8s-3.582 8-8 8h-151.094c-4.418 0-8-3.582-8-8s3.582-8 8-8z" fill="#8d9ca8"/></g><g><circle cx="420.446" cy="282.606" fill="#64b5f6" r="79.379"/><path d="m369.541 343.51c-17.403-14.561-28.475-36.438-28.475-60.904 0-43.84 35.539-79.379 79.379-79.379 24.466 0 46.343 11.072 60.904 28.475-13.781-11.531-31.531-18.475-50.904-18.475-43.84 0-79.379 35.539-79.379 79.379.001 19.374 6.945 37.123 18.475 50.904z" fill="#42a5f5"/><path d="m448.9 262.321c5.245-5.274 13.774-5.298 19.048-.053 5.274 5.246 5.298 13.774.053 19.048l-45.828 46.257c-5.21 5.239-13.659 5.297-18.941.156l-23.294-22.704c-5.332-5.187-5.451-13.715-.264-19.048 5.187-5.332 13.715-5.451 19.048-.264l13.736 13.39z" fill="#42a5f5"/><path d="m445.456 249.979c5.245-5.274 13.774-5.298 19.048-.053s5.298 13.774.053 19.048l-45.828 46.257c-5.21 5.239-13.659 5.297-18.941.156l-23.294-22.704c-5.333-5.187-5.451-13.715-.264-19.048 5.187-5.332 13.716-5.451 19.048-.264l13.736 13.39z" fill="#eff4f7"/><path d="m467.516 254.478c1.93 4.837.947 10.569-2.959 14.497l-45.828 46.257c-5.21 5.239-13.659 5.297-18.941.156l-23.294-22.704c-4.028-3.918-5.08-9.742-3.118-14.656.68 1.703 1.719 3.294 3.118 4.656l23.294 22.704c5.282 5.14 13.731 5.082 18.941-.156l45.828-46.258c1.32-1.327 2.306-2.861 2.959-4.496z" fill="#e2e3e3"/></g></g></svg>