<svg id="Layer_1_1_" enable-background="new 0 0 64 64" height="512" viewBox="0 0 64 64" width="512" xmlns="http://www.w3.org/2000/svg"><path d="m49.473 57.002c.107-.858.638-1.796.841-2.515.482-1.712.75-3.476 1.254-5.182 1.767-5.985 2.794-12.232 2.46-18.485-.326-6.077-1.585-12.944-3.028-18.82v-9h-36.964v9c-2.049 8.814-4.767 19.611-3.891 28.732.315 3.279.934 6.522 1.686 9.727.37 1.574.772 3.139 1.189 4.701.333 1.25.877 2.461.998 3.76.02.21.115 2.55.018 2.574 0 0 8.9-2.225 8.9-2.225.986-.247 2.007-.326 3.02-.233l27.044 2.458s-3.113-3.113-3.116-3.116c-.389-.389-.474-.869-.411-1.376z" fill="#9c5f20"/><path d="m44.424 26.125c-1.205-1.468-2.732-.383-2.732-.383s.407-1.736-.692-2.531c-1-.723-3.004.643-3.004.643s-1.567-1.045-2.612-.723c-1.045.321.17 2.994.17 2.994l4.446 6.051 2.705.417c2.138-.784.594-3.345.594-3.345s2.157-1.866 1.125-3.123z" fill="#c12929"/><path d="m38.871 35.159c-.264 0-.85 0-.85 0-2.018 0-3.776 2.553-3.904 4.679-.002.36.004.593.004.593s5.784-1.278 4.88-5.23c-.001-.001-.048-.017-.13-.042z" fill="#c12929"/><path d="m41 32.249c-.585-.054-2 2.951-2 2.951l6 1.042s.904-3.539-4-3.993z" fill="#edbf36"/><path d="m25.695 31.485c-.455 1.155-.661 2.402-1.187 3.526-1.389 2.967-5.039 6.24-8.931 8.514 3.291 5.66 9.405 9.475 16.423 9.475 1.105 0 2.181-.114 3.234-.295.291-3.192-.835-9.391-1.114-12.275-.214-2.209 1.691-5.271 3.901-5.271h.979l2-2.91c0-8.001-12.308-8.375-15.305-.764z" fill="#f4c69d"/><path d="m14 7h37v3h-37z" fill="#fff"/><path d="m49.473 57.002c.013-.104.048-.211.072-.316l-23.588-2.144c-1.013-.092-2.033-.013-3.02.233 0 0-3.664.916-6.291 1.573-1.28.32-2.517-.6-2.627-1.915 0-.003 0-.005-.001-.007-.121-1.299-.665-2.511-.998-3.76-.416-1.562-.819-3.127-1.189-4.701-.753-3.205-1.372-6.447-1.686-9.727-.047-.491-.079-.99-.106-1.49-.096 2.046-.079 4.054.106 5.984.315 3.279.934 6.522 1.686 9.727.37 1.574.773 3.139 1.189 4.701.333 1.25.877 2.461.998 3.76.02.21.115 2.55.018 2.574 0 0 8.9-2.225 8.9-2.225.986-.247 2.007-.326 3.02-.233l27.044 2.458s-3.113-3.113-3.116-3.116c-.389-.389-.474-.869-.411-1.376z" fill="#8c551d"/><circle cx="35.717" cy="30.53" r="1.282"/><path d="m51.88 52.239c.203-.926.396-1.8.646-2.651 1.971-6.671 2.812-13.003 2.5-18.821-.289-5.385-1.362-12.088-3.026-18.888v-8.879c0-.553-.447-1-1-1h-36.964c-.553 0-1 .447-1 1v8.885l-.351 1.502c-2.051 8.769-4.374 18.706-3.535 27.441.595 6.2 2.288 12.374 3.781 17.821l.965-.265-.938.363c.052.194.077.389.077.595v2.151c0 .308.142.599.385.788s.558.258.857.182l8.9-2.225c.88-.221 1.785-.292 2.687-.208l27.044 2.459c.03.003.061.004.091.004.386 0 .74-.223.905-.576.179-.381.1-.833-.198-1.131l-3.115-3.116c-.17-.171-.216-.425-.116-.647.693-1.542 1.054-3.19 1.405-4.784zm-1.954-.428c-.326 1.486-.643 2.89-1.194 4.189h-3.732v2h3.54c.119.402.331.778.638 1.085l1.163 1.163-24.294-2.209c-.305-.027-.609-.041-.913-.041-.82 0-1.638.101-2.439.301l-7.658 1.914v-.87c0-.379-.049-.753-.146-1.112 0-.002-.029-.108-.029-.11-.011-.039-.022-.081-.033-.12h2.171v-2h-2.718c-1.307-4.824-2.638-10.114-3.142-15.363-.808-8.408 1.478-18.176 3.492-26.794l.377-1.616c.018-.074.026-.15.026-.227v-8.001h34.965v8c0 .08.01.16.029.238 1.65 6.723 2.716 13.341 2.999 18.636.3 5.59-.515 11.695-2.42 18.147-.271.919-.48 1.871-.682 2.79z"/><path d="m36.276 51.477c-.005-2.36-.421-5.468-.777-8.078-.112-.824-.215-1.583-.294-2.243 1.165-.387 3.198-1.261 4.233-2.897.368-.582.563-1.206.622-1.859l4.768.828c.058.01.115.015.172.015.449 0 .854-.304.968-.752.045-.176.407-1.752-.614-3.2-.239-.339-.536-.632-.877-.89.091-.153.162-.303.21-.439.315-.897.074-1.86-.18-2.502.934-1.037 1.776-2.646.689-3.969-.746-.907-1.67-1.188-2.479-1.123-.113-.717-.433-1.461-1.133-1.967-1.148-.831-2.734-.186-3.599.29-.699-.366-1.868-.829-2.897-.516-.429.132-.769.435-.956.851-.255.568-.188 1.311-.022 1.992-3.636.008-7.709 1.943-9.347 6.102-.215.547-.375 1.099-.529 1.632-.189.654-.368 1.272-.632 1.836-1.118 2.387-4.094 5.293-7.643 7.535-1.243-2.445-1.959-5.199-1.959-8.123 0-5.592 2.533-10.771 6.951-14.211l-1.229-1.578c-4.908 3.821-7.722 9.576-7.722 15.789 0 11.028 8.972 20 20 20 3.841 0 7.572-1.092 10.791-3.158l-1.08-1.684c-1.679 1.078-3.516 1.851-5.435 2.319zm-.979-12.491c.206-.684.562-1.373 1.052-1.912.535-.59 1.129-.915 1.67-.915h.059c-.024.363-.125.705-.328 1.026-.518.822-1.55 1.419-2.453 1.801zm5.21-4.539c.281-.506.549-.935.732-1.165 1.189.159 2.039.551 2.467 1.143.147.205.237.423.29.628zm-3.068-9.76c.339.225.781.224 1.116-.005.776-.524 1.694-.78 1.856-.66.446.322.366 1.212.305 1.492-.095.405.07.826.416 1.059.345.231.798.226 1.137-.015.181-.13.812-.491 1.381.202.236.288-.438 1.235-1.007 1.732-.368.318-.453.855-.202 1.272.197.327.505 1.113.357 1.533-.015.041-.054.131-.187.226-.219-.06-.447-.111-.685-.154-.336-3.083-2.419-5.354-5.643-6.099-.164-.443-.285-.898-.319-1.194.416.053 1.039.322 1.475.611zm-20.482 19.17c3.927-2.463 7.162-5.658 8.455-8.422.33-.705.54-1.428.742-2.127.148-.513.289-.996.47-1.456 1.524-3.872 5.742-5.317 8.931-4.712 2.596.493 4.197 2.198 4.402 4.592-.404.402-.912 1.125-1.564 2.427h-.374c-1.112 0-2.231.558-3.15 1.57-1.213 1.336-1.898 3.219-1.745 4.797.08.826.229 1.923.395 3.143.348 2.564.805 5.936.76 8.18-.754.095-1.513.151-2.279.151-6.287 0-11.823-3.245-15.043-8.143z"/><path d="m44.315 47.127 1.369 1.459c.65-.61 1.264-1.269 1.822-1.954l-1.551-1.264c-.502.618-1.054 1.21-1.64 1.759z"/><path d="m16 9h3v2h-3z"/><path d="m21 9h3v2h-3z"/><path d="m26 9h3v2h-3z"/><path d="m31 9h3v2h-3z"/><path d="m36 9h3v2h-3z"/><path d="m41 9h3v2h-3z"/><path d="m46 9h3v2h-3z"/></svg>