<?xml version="1.0" encoding="UTF-8"?>
<svg xmlns="http://www.w3.org/2000/svg" xmlns:xlink="http://www.w3.org/1999/xlink" version="1.1" id="Capa_1" x="0px" y="0px" viewBox="0 0 512 512" style="enable-background:new 0 0 512 512;" xml:space="preserve" width="512" height="512">
<g>
	<g>
		<linearGradient id="SVGID_1_" gradientUnits="userSpaceOnUse" x1="154.21" y1="387.7872" x2="426.244" y2="115.7532">
			<stop offset="0" style="stop-color:#FFF2ED;stop-opacity:0"/>
			<stop offset="0.2938" style="stop-color:#FFE9DD;stop-opacity:0.3731"/>
			<stop offset="0.7874" style="stop-color:#FFD5BA"/>
		</linearGradient>
		<path style="fill:url(#SVGID_1_);" d="M508.025,342.754c-20.585-79.163-124.083-112.965-132.374-191.876&#10;&#9;&#9;&#9;c-3.015-28.691,14.306-60.357-0.742-84.966c-20.98-34.31-137.266-73.181-134.457,36.348c1.343,52.359-38.176,75.92-72.354,39.284&#10;&#9;&#9;&#9;C125.301,95.67,67.586,90.895,24.492,132.34c-34.676,33.349-51.819,127.899,84.777,180.392&#10;&#9;&#9;&#9;c95.921,36.862,148.494,118.717,232.608,158.116C422.741,508.723,534.535,444.702,508.025,342.754z"/>
	</g>
	<g>
		<g>
			<g>
				<path style="opacity:0.1;fill:#0000CB;" d="M403.936,459.839c-3.173-5.216-6.561-10.122-9.906-14.596&#10;&#9;&#9;&#9;&#9;&#9;c-3.061-4.094-4.226-9.327-3.06-14.304c10.154-43.362-1.938-123.025-8.563-186.087h7.204c5.523,0,10-4.477,10-10v-30.549&#10;&#9;&#9;&#9;&#9;&#9;c0-5.523-4.477-10-10-10h-9.793l-27.349-31.521c-6.001-6.916-14.707-10.889-23.863-10.889h-11.692&#10;&#9;&#9;&#9;&#9;&#9;c-6.868,0-13.213-3.668-16.639-9.62c-2.346-4.075-6.107-7.148-10.568-8.635l-23.461-7.82c-1.958-0.653-4.008-0.985-6.072-0.985&#10;&#9;&#9;&#9;&#9;&#9;h-34.769c-4.874,0-9.534,1.866-13.072,5.16c0.378-2.559,0.58-5.175,0.58-7.838c0-29.356-23.798-53.154-53.154-53.154&#10;&#9;&#9;&#9;&#9;&#9;c-29.356,0-53.154,23.798-53.154,53.154c0,27.051,20.212,49.366,46.355,52.707l-15.947,19.442h-9.467c-5.523,0-10,4.477-10,10&#10;&#9;&#9;&#9;&#9;&#9;v30.549c0,5.523,4.477,10,10,10h7.204c-6.625,63.062-18.716,142.726-8.563,186.087c1.166,4.977,0.001,10.21-3.061,14.304&#10;&#9;&#9;&#9;&#9;&#9;c-3.345,4.474-6.733,9.38-9.906,14.596c-4.044,6.647,0.788,15.162,8.569,15.162h273.58&#10;&#9;&#9;&#9;&#9;&#9;C403.147,475,407.98,466.485,403.936,459.839z"/>
				<g>
					<g>
						<g>
							<path style="fill:#FF6C6C;" d="M131.369,177.181l31.391-38.271c2.527-3.081,5.949-5.299,9.793-6.347l15.265-4.163&#10;&#9;&#9;&#9;&#9;&#9;&#9;&#9;&#9;c3.529-0.962,6.709-2.913,9.167-5.621l14.199-15.648c3.639-4.011,8.803-6.298,14.219-6.298h34.769&#10;&#9;&#9;&#9;&#9;&#9;&#9;&#9;&#9;c2.064,0,4.114,0.333,6.072,0.985l23.461,7.82c4.461,1.487,8.221,4.559,10.568,8.635l0,0c3.427,5.952,9.772,9.62,16.639,9.62&#10;&#9;&#9;&#9;&#9;&#9;&#9;&#9;&#9;h11.692c9.157,0,17.863,3.973,23.863,10.889l33.318,38.4H131.369z"/>
							<path style="fill:#FF4D4D;" d="M159.757,175.308c29.356,0,53.154-23.798,53.154-53.154c0-5.085-0.729-9.997-2.063-14.654&#10;&#9;&#9;&#9;&#9;&#9;&#9;&#9;&#9;l-13.864,15.278c-2.458,2.709-5.638,4.659-9.167,5.621l-15.265,4.163c-3.844,1.048-7.267,3.267-9.793,6.347l-25.689,31.319&#10;&#9;&#9;&#9;&#9;&#9;&#9;&#9;&#9;C143.953,173.482,151.64,175.308,159.757,175.308z"/>
							
								<path style="fill:none;stroke:#0000CB;stroke-width:10;stroke-linecap:round;stroke-linejoin:round;stroke-miterlimit:10;" d="&#10;&#9;&#9;&#9;&#9;&#9;&#9;&#9;&#9;M131.369,177.181l31.391-38.271c2.527-3.081,5.949-5.299,9.793-6.347l15.265-4.163c3.529-0.962,6.709-2.913,9.167-5.621&#10;&#9;&#9;&#9;&#9;&#9;&#9;&#9;&#9;l14.199-15.648c3.639-4.011,8.803-6.298,14.219-6.298h34.769c2.064,0,4.114,0.333,6.072,0.985l23.461,7.82&#10;&#9;&#9;&#9;&#9;&#9;&#9;&#9;&#9;c4.461,1.487,8.221,4.559,10.568,8.635l0,0c3.427,5.952,9.772,9.62,16.639,9.62h11.692c9.157,0,17.863,3.973,23.863,10.889&#10;&#9;&#9;&#9;&#9;&#9;&#9;&#9;&#9;l33.318,38.4H131.369z"/>
						</g>
						<g>
							<path style="fill:#FF4D4D;" d="M255.356,143.04h-6.282c-2.762,0-5-2.239-5-5s2.238-5,5-5h6.282c2.762,0,5,2.239,5,5&#10;&#9;&#9;&#9;&#9;&#9;&#9;&#9;&#9;S258.117,143.04,255.356,143.04z"/>
						</g>
						<g>
							<path style="fill:#FF4D4D;" d="M226.033,154.006h-6.282c-2.762,0-5-2.239-5-5s2.238-5,5-5h6.282c2.762,0,5,2.239,5,5&#10;&#9;&#9;&#9;&#9;&#9;&#9;&#9;&#9;S228.795,154.006,226.033,154.006z"/>
						</g>
						<g>
							<path style="fill:#FF9393;" d="M244.315,127.228h-6.282c-2.762,0-5-2.239-5-5s2.238-5,5-5h6.282c2.762,0,5,2.239,5,5&#10;&#9;&#9;&#9;&#9;&#9;&#9;&#9;&#9;S247.077,127.228,244.315,127.228z"/>
						</g>
						<g>
							<path style="fill:#FF9393;" d="M328.909,154.006h-6.282c-2.762,0-5-2.239-5-5s2.238-5,5-5h6.282c2.762,0,5,2.239,5,5&#10;&#9;&#9;&#9;&#9;&#9;&#9;&#9;&#9;S331.671,154.006,328.909,154.006z"/>
						</g>
						<g>
							<path style="fill:#FF9393;" d="M285.419,153.04h-6.282c-2.762,0-5-2.239-5-5s2.238-5,5-5h6.282c2.762,0,5,2.239,5,5&#10;&#9;&#9;&#9;&#9;&#9;&#9;&#9;&#9;S288.181,153.04,285.419,153.04z"/>
						</g>
					</g>
					<g>
						<g>
							<g>
								<path style="fill:#FFAA66;" d="M381.42,211.148H135.734c-6.293,64.375-20.231,150.173-9.549,195.791&#10;&#9;&#9;&#9;&#9;&#9;&#9;&#9;&#9;&#9;c1.165,4.977,0.001,10.21-3.06,14.304c-3.345,4.474-6.733,9.38-9.906,14.596c-4.044,6.647,0.788,15.162,8.569,15.162h273.58&#10;&#9;&#9;&#9;&#9;&#9;&#9;&#9;&#9;&#9;c7.78,0,12.612-8.515,8.569-15.162c-3.173-5.216-6.561-10.122-9.906-14.596c-3.061-4.094-4.226-9.327-3.061-14.304&#10;&#9;&#9;&#9;&#9;&#9;&#9;&#9;&#9;&#9;C401.651,361.321,387.712,275.523,381.42,211.148z"/>
								<path style="fill:#FF9C33;" d="M385.056,244.851c-1.325-11.639-2.587-22.97-3.636-33.704H135.734&#10;&#9;&#9;&#9;&#9;&#9;&#9;&#9;&#9;&#9;c-1.049,10.734-2.311,22.065-3.636,33.704H385.056z"/>
								<path style="fill:#FFFFFF;" d="M335.03,292.951c0,39.83-30.46,72.53-69.35,76.11l-35.52-25.95l-38.43-13.07&#10;&#9;&#9;&#9;&#9;&#9;&#9;&#9;&#9;&#9;c-6.12-10.98-9.6-23.63-9.6-37.09c0-42.22,34.23-76.45,76.45-76.45C300.8,216.501,335.03,250.731,335.03,292.951z"/>
								<path style="fill:#FFF2ED;" d="M317.983,244.851c-14.016-17.289-35.415-28.349-59.405-28.349&#10;&#9;&#9;&#9;&#9;&#9;&#9;&#9;&#9;&#9;c-23.991,0-45.39,11.06-59.406,28.349H317.983z"/>
								
									<path style="fill:none;stroke:#0000CB;stroke-width:10;stroke-linecap:round;stroke-linejoin:round;stroke-miterlimit:10;" d="&#10;&#9;&#9;&#9;&#9;&#9;&#9;&#9;&#9;&#9;M131.457,250.474c-6.487,56.746-13.887,119.672-5.271,156.464c1.166,4.977,0.001,10.21-3.06,14.304&#10;&#9;&#9;&#9;&#9;&#9;&#9;&#9;&#9;&#9;c-3.345,4.474-6.733,9.38-9.906,14.596c-4.044,6.647,0.788,15.162,8.569,15.162h273.58c7.78,0,12.613-8.515,8.569-15.162&#10;&#9;&#9;&#9;&#9;&#9;&#9;&#9;&#9;&#9;c-3.173-5.216-6.561-10.122-9.906-14.596c-3.061-4.094-4.226-9.327-3.061-14.304c10.084-43.066-1.774-121.94-8.427-184.795"/>
							</g>
							<g>
								<path style="fill:#FFD5BA;" d="M389.61,220.851H127.544c-5.523,0-10-4.477-10-10v-30.549c0-5.523,4.477-10,10-10H389.61&#10;&#9;&#9;&#9;&#9;&#9;&#9;&#9;&#9;&#9;c5.523,0,10,4.477,10,10v30.549C399.61,216.374,395.133,220.851,389.61,220.851z"/>
								
									<path style="fill:none;stroke:#0000CB;stroke-width:10;stroke-linecap:round;stroke-linejoin:round;stroke-miterlimit:10;" d="&#10;&#9;&#9;&#9;&#9;&#9;&#9;&#9;&#9;&#9;M286.704,170.302h-159.16c-5.523,0-10,4.477-10,10v30.549c0,5.523,4.477,10,10,10H389.61c5.523,0,10-4.477,10-10v-30.549&#10;&#9;&#9;&#9;&#9;&#9;&#9;&#9;&#9;&#9;c0-5.523-4.477-10-10-10h-73.224"/>
							</g>
						</g>
						<path style="fill:#FFD5BA;" d="M206.077,426.302H156.64c-2.761,0-5-2.239-5-5v-13.919c0-2.761,2.239-5,5-5h49.436&#10;&#9;&#9;&#9;&#9;&#9;&#9;&#9;c2.761,0,5,2.239,5,5v13.919C211.077,424.063,208.838,426.302,206.077,426.302z"/>
					</g>
					<circle style="fill:#FF6C6C;" cx="322.781" cy="342.462" r="35"/>
					<g>
						<path style="fill:#FFFFFF;" d="M338.621,346.942c0,8.748-7.092,15.84-15.84,15.84s-15.84-7.092-15.84-15.84&#10;&#9;&#9;&#9;&#9;&#9;&#9;&#9;c0-11.459,7.092-24.802,15.84-24.802S338.621,335.483,338.621,346.942z"/>
					</g>
					<g>
						<g>
							<circle style="fill:#FFC498;" cx="159.757" cy="98.154" r="53.154"/>
							
								<circle style="fill:none;stroke:#0000CB;stroke-width:10;stroke-linecap:round;stroke-linejoin:round;stroke-miterlimit:10;" cx="159.757" cy="98.154" r="53.154"/>
						</g>
						<g>
							<path style="fill:#FF4D4D;" d="M180.435,112.328c7.828,0,14.174-6.346,14.174-14.174s-6.346-14.174-14.174-14.174h-41.356&#10;&#9;&#9;&#9;&#9;&#9;&#9;&#9;&#9;v28.349H180.435z"/>
							<circle style="fill:#FF6C6C;" cx="139.079" cy="98.154" r="14.174"/>
							<g>
								<path style="fill:#FF6C6C;" d="M165.522,98.724h-2.282c-2.762,0-5-2.239-5-5s2.238-5,5-5h2.282c2.762,0,5,2.239,5,5&#10;&#9;&#9;&#9;&#9;&#9;&#9;&#9;&#9;&#9;S168.284,98.724,165.522,98.724z"/>
							</g>
							<g>
								<path style="fill:#FF9393;" d="M180.113,104.845h-2.282c-2.762,0-5-2.239-5-5s2.238-5,5-5h2.282c2.762,0,5,2.239,5,5&#10;&#9;&#9;&#9;&#9;&#9;&#9;&#9;&#9;&#9;S182.875,104.845,180.113,104.845z"/>
							</g>
							<g>
								<path style="fill:#FF9393;" d="M138.623,106.456h-2.282c-2.762,0-5-2.239-5-5s2.238-5,5-5h2.282c2.762,0,5,2.239,5,5&#10;&#9;&#9;&#9;&#9;&#9;&#9;&#9;&#9;&#9;S141.385,106.456,138.623,106.456z"/>
							</g>
						</g>
					</g>
					<g>
						<path style="fill:#FF4D4D;" d="M239.487,265.84c0,0-16.423-15.614-11.544-24.335c2.812-5.026,7.858-7.158,19.965-2.18&#10;&#9;&#9;&#9;&#9;&#9;&#9;&#9;c0,0,0.965-8.648,9.738-8.648c10.458,0,11.388,19.448,11.388,19.448s2.181-9.285,10.688-8.596&#10;&#9;&#9;&#9;&#9;&#9;&#9;&#9;c7.761,0.628,14.89,16.234,5.01,26.66c0,0,3.842-2.101,6.915,0.142c6.028,4.399,4.484,18.598-16.041,25.175L239.487,265.84z"/>
						<path style="fill:#FF4D4D;" d="M273.29,308.958c0,0,8.97,17.69-4.236,21.428c0,0,2.741,13.455-8.471,11.96&#10;&#9;&#9;&#9;&#9;&#9;&#9;&#9;c-11.212-1.495-13.953-15.199-13.953-33.388H273.29z"/>
						<path style="fill:#FFE7DB;" d="M259.468,317.816c0-0.002,0-0.004-0.001-0.005c8.99-5.99,14.92-16.21,14.92-27.82&#10;&#9;&#9;&#9;&#9;&#9;&#9;&#9;c0-18.44-14.95-33.39-33.39-33.39c-18.43,0-33.38,14.95-33.38,33.39c0,0-0.36,22.08-15.89,40.05&#10;&#9;&#9;&#9;&#9;&#9;&#9;&#9;c11.3,20.34,31.63,34.98,55.57,38.52c0.001-0.001,0.002-0.001,0.003-0.002v0.002c3.68,0.55,7.45,0.83,11.28,0.83&#10;&#9;&#9;&#9;&#9;&#9;&#9;&#9;c2.39,0,4.76-0.11,7.1-0.33c2.56-21.67-6.21-51.25-6.21-51.25L259.468,317.816z"/>
						<circle style="fill:#4D4DFF;" cx="253.736" cy="288.506" r="5"/>
						<path style="fill:#FF9C33;" d="M266.789,311.2l13.709,4.937c1.818,0.655,3.779-0.492,4.102-2.397&#10;&#9;&#9;&#9;&#9;&#9;&#9;&#9;c0.911-5.372,0.824-16.1-10.352-26.828C274.248,286.912,265.005,294.95,266.789,311.2z"/>
					</g>
					<g>
						<path style="fill:#FF2C2C;" d="M268.367,244.851h-41.32c0.04-1.19,0.32-2.32,0.9-3.35c2.81-5.02,7.85-7.15,19.96-2.18&#10;&#9;&#9;&#9;&#9;&#9;&#9;&#9;c0,0,0.97-8.64,9.74-8.64C264.527,230.681,267.287,239.091,268.367,244.851z"/>
						<path style="fill:#FF2C2C;" d="M285.477,244.851h-13.72c1.63-1.95,4.17-3.63,7.96-3.32&#10;&#9;&#9;&#9;&#9;&#9;&#9;&#9;C281.787,241.701,283.817,242.931,285.477,244.851z"/>
					</g>
				</g>
			</g>
			<g>
				<path style="fill:#FFD5BA;" d="M356.452,426.302h-70.004c-2.762,0-5-2.239-5-5s2.238-5,5-5h70.004c2.762,0,5,2.239,5,5&#10;&#9;&#9;&#9;&#9;&#9;S359.214,426.302,356.452,426.302z"/>
			</g>
			<g>
				<path style="fill:#FFD5BA;" d="M356.452,407.383h-26.004c-2.762,0-5-2.239-5-5s2.238-5,5-5h26.004c2.762,0,5,2.239,5,5&#10;&#9;&#9;&#9;&#9;&#9;S359.214,407.383,356.452,407.383z"/>
			</g>
		</g>
		<path style="fill:none;stroke:#FF6C6C;stroke-width:10;stroke-linecap:round;stroke-linejoin:round;stroke-miterlimit:10;" d="&#10;&#9;&#9;&#9;M88.161,400.525c0,5.912-4.792,10.704-10.704,10.704s-10.704-4.792-10.704-10.704"/>
		<path style="fill:none;stroke:#8282FF;stroke-width:10;stroke-linecap:round;stroke-linejoin:round;stroke-miterlimit:10;" d="&#10;&#9;&#9;&#9;M77.457,50.27c0,5.912-4.792,10.704-10.704,10.704S56.048,56.182,56.048,50.27"/>
		
			<polyline style="fill:none;stroke:#FF9C33;stroke-width:10;stroke-linecap:round;stroke-linejoin:round;stroke-miterlimit:10;" points="&#10;&#9;&#9;&#9;422.075,133.229 413.075,124.229 404.075,133.229 &#9;&#9;"/>
		
			<polyline style="fill:none;stroke:#FF9C33;stroke-width:10;stroke-linecap:round;stroke-linejoin:round;stroke-miterlimit:10;" points="&#10;&#9;&#9;&#9;86.457,110.956 77.457,101.956 68.457,110.956 &#9;&#9;"/>
		
			<polyline style="fill:none;stroke:#FF6C6C;stroke-width:10;stroke-linecap:round;stroke-linejoin:round;stroke-miterlimit:10;" points="&#10;&#9;&#9;&#9;441.075,330.247 432.075,321.247 423.075,330.247 &#9;&#9;"/>
	</g>
</g>















</svg>
