<svg id="Flat" height="512" viewBox="0 0 64 64" width="512" xmlns="http://www.w3.org/2000/svg"><g><g fill="#737f9b"><path d="m32.73 56.5-3.2-.2-1.31-6.71c-.11-.54-.63-.9-1.17-.79s-.9.63-.79 1.17l1.34 6.89-1.63 1.37c-.42.35-.48.98-.12 1.41.2.24.48.36.77.36.23 0 .45-.08.64-.23l1.78-1.49 3.58.22s.04 0 .06 0c.52 0 .96-.41 1-.94.03-.55-.39-1.03-.94-1.06z"/><path d="m42.78 55.03-3.2-.2-1.31-6.71c-.11-.54-.63-.9-1.17-.79s-.9.63-.79 1.17l1.34 6.89-1.63 1.37c-.42.35-.48.99-.12 1.41.2.24.48.36.77.36.23 0 .45-.08.64-.23l1.78-1.49 3.58.22s.04 0 .06 0c.52 0 .96-.41 1-.94.03-.55-.39-1.03-.94-1.06z"/></g><path d="m30.15 45.74-.82 6.01c-.05.39-.34.72-.72.83l-2.08.59c-.48.14-.98-.1-1.19-.55l-3.75-8.34 8.55 1.47z" fill="#b8c3d5"/><path d="m53.65 19.23c1.54-.06 4.46.16 6.34 1.25-1.18-3.7-3.17-5.56-6.34-5.56z" fill="#ecaf64"/><path d="m43.68 12.34c-1.67-2.02-1.03-6.16 1.96-5.63.17-3.46 5.75-3.8 6.74.16 3.48-.07 3.15 4.53.12 6.37l-8.82-.89z" fill="#d85363"/><path d="m53.65 19.23c1.77-2.01 1.03-5.1 1.03-5.1-.71-3.36-5.41-5.12-9.05-3.02-5.36 3.1-6.42 12.59-15.64 12.5s-18.08-.53-23.98-4.22c0 0 .55 6.08 4.24 7.93 0 0-3.69-.26-4.24-.62 1.01 3.61 4.51 6.87 6.26 7.29 0 0-3.64.2-4.56-.16 6.64 6.23 7.19 12.41 21.33 13.56 1.38.11 3 .17 4.72.12l1.63 3.63c.2.45.71.69 1.18.55l2.08-.59c.38-.11.66-.43.72-.83l.49-3.56c4.16-1.03 8-3.22 9.79-7.61 7.77-6.2 5.48-16.54 4-19.88z" fill="#d3dce5"/><circle cx="48.5" cy="15.17" fill="#335068" r="2"/><path d="m30.75 39.63c-3.97 0-7.9-1.38-8.69-2.67-.16-.26-.19-.58-.09-.86.1-.29.33-.51.62-.61.46-.16.88-.33 1.25-.5-1.87-.89-4.5-2.49-5.22-4.65-.1-.31-.05-.64.14-.9s.49-.42.81-.42c.3 0 .74.02 1.29.06 2.33.14 7.18.42 9.93-1.09.48-.27 1.09-.09 1.36.39s.09 1.09-.39 1.36c-2.97 1.63-7.42 1.53-10.24 1.38 1.42 1.35 3.85 2.41 4.92 2.78.35.12.6.42.66.79.06.36-.09.73-.39.95-.04.03-.63.47-1.62.97 1.41.54 3.78 1.12 6.38.99 4.22-.21 7.31-1.63 8.95-4.12 1.51-2.28 1.4-4.81.86-6.28-.19-.52.07-1.09.59-1.28s1.09.07 1.28.59c.71 1.91.85 5.17-1.07 8.08-1.4 2.12-4.36 4.71-10.52 5.01-.27.01-.55.02-.82.02z" fill="#b8c3d5"/></g><circle cx="22" cy="22" fill="#79b24d" r="18"/><g><path d="m31.71 32.2c-.26 0-.51-.1-.71-.29l-4.24-4.24c-.39-.39-.39-1.02 0-1.41s1.02-.39 1.41 0l4.24 4.24c.39.39.39 1.02 0 1.41-.2.2-.45.29-.71.29z" fill="#536882"/><path d="m18.51 15.01h8v12c0 1.1-.9 2-2 2h-4c-1.1 0-2-.9-2-2z" fill="#d3dce5" transform="matrix(.707 -.707 .707 .707 -8.97 22.37)"/><path d="m13.44 11.94h4v6h-4z" fill="#b8c3d5" transform="matrix(.707 -.707 .707 .707 -6.04 15.29)"/><g fill="#536882"><path d="m13.32 22.3c-.26 0-.51-.1-.71-.29-.39-.39-.39-1.02 0-1.41l8.49-8.49c.39-.39 1.02-.39 1.41 0s.39 1.02 0 1.41l-8.49 8.49c-.2.2-.45.29-.71.29z"/><path d="m10.49 16.64c-.26 0-.51-.1-.71-.29-.39-.39-.39-1.02 0-1.41l5.66-5.66c.39-.39 1.02-.39 1.41 0s.39 1.02 0 1.41l-5.66 5.66c-.2.2-.45.29-.71.29z"/></g></g></svg>