<svg xmlns="http://www.w3.org/2000/svg" viewBox="0 0 500 500"><g id="freepik--background-simple--inject-2"><path d="M383.16,133.14a212.8,212.8,0,0,0-10.85-19C326.19,43.85,202.7,5.57,141.51,78.25,126.92,95.57,121.84,116.5,112,136.37c-22.32,45.18-64,72.2-90.2,114-20.27,32.43-17.57,74-6.26,109.06,12.29,38.1,33.92,64.71,68.52,84.94,38.79,22.67,80.27,16.38,122.2,8.49,18.85-3.55,38.29-7.17,57.57-5.82,24.14,1.7,48,8.53,71.92,11.85,24.9,3.45,50.74,4.27,74.73-3.26,76.83-24.09,95-137,63.44-201.73-11.18-22.9-30.14-40.56-47.74-58.49C407.2,176.1,395.56,157.16,383.16,133.14Z" style="fill:#92E3A9"></path><path d="M383.16,133.14a212.8,212.8,0,0,0-10.85-19C326.19,43.85,202.7,5.57,141.51,78.25,126.92,95.57,121.84,116.5,112,136.37c-22.32,45.18-64,72.2-90.2,114-20.27,32.43-17.57,74-6.26,109.06,12.29,38.1,33.92,64.71,68.52,84.94,38.79,22.67,80.27,16.38,122.2,8.49,18.85-3.55,38.29-7.17,57.57-5.82,24.14,1.7,48,8.53,71.92,11.85,24.9,3.45,50.74,4.27,74.73-3.26,76.83-24.09,95-137,63.44-201.73-11.18-22.9-30.14-40.56-47.74-58.49C407.2,176.1,395.56,157.16,383.16,133.14Z" style="fill:#fff;opacity:0.7000000000000001"></path></g><g id="freepik--Floor--inject-2"><path d="M472.87,449.78H20.09a.5.5,0,1,1,0-1H472.87a.5.5,0,0,1,0,1Z" style="fill:#263238"></path></g><g id="freepik--arrows-2--inject-2"><path d="M186.9,161.77a9.75,9.75,0,0,1-7.12-16.4L263.69,55.7,207.1,59.65,206,44.26l.5,0,86.91-6-.28,87.61-15.43,0L277.93,69,194,158.69A9.77,9.77,0,0,1,186.9,161.77ZM266.16,54.53l-85.65,91.53A8.74,8.74,0,0,0,193.28,158l85.66-91.55-.2,58.31,13.43,0,.28-85.54L207.1,45.19l.93,13.4Z" style="fill:#263238"></path><path d="M405.38,318a5.21,5.21,0,0,1-3.81-8.78L444,263.93l-28.52,2-.57-8.35L460,254.43l-.15,45.23-8.36,0,.1-28.59-42.42,45.33A5.23,5.23,0,0,1,405.38,318Zm41.06-55.28L402.3,309.93a4.23,4.23,0,0,0-1.14,3,4.22,4.22,0,0,0,7.3,2.74l44.15-47.18-.1,30.14h6.37L459,255.5l-43.05,3,.43,6.35Z" style="fill:#263238"></path><path d="M123.47,147.14l-16.35-15.21,31.14-32.65-12.94-4.69,56-25.14-21,57.62-5.62-12.59Zm-14.93-15.25,14.89,13.84,31.49-33,5.21,11.69,19.39-53.07L128,94.49,140,98.86Z" style="fill:#263238"></path><path d="M87.3,439.17,71,424l31.14-32.65-12.94-4.69,56-25.14L124.06,419.1l-5.62-12.59ZM72.38,423.92l14.88,13.84,31.49-33,5.22,11.7,19.38-53.08L91.81,386.52l12.06,4.37Z" style="fill:#263238"></path><path d="M133.17,272.26H34.33v-13h98.84a61.46,61.46,0,0,0,44.94-19.62l28-30.21L177.67,224l-4.08-7.93.45-.23,66.74-34.24-29.31,69.59-8.22-3.46,12.42-29.49-28,30.21A74.54,74.54,0,0,1,133.17,272.26Zm-97.84-1h97.84a73.5,73.5,0,0,0,53.74-23.46l31.88-34.37-14.23,33.79,6.38,2.69,27.85-66.13-63.85,32.75,3.16,6.16L210.73,206l-31.88,34.37a62.49,62.49,0,0,1-45.68,19.94H35.33Z" style="fill:#263238"></path></g><g id="freepik--arrow-1--inject-2"><path d="M441.64,26.48l-74,43.63,10.16,18.61c-1.38,1.16-106,122-156.76,180.62a89.82,89.82,0,0,1-68.29,31l-132.7-.49v40l143.58.07a114.47,114.47,0,0,0,86-38.84L398.3,125.72l11.28,20.68L444,31.18Z" style="fill:#263238"></path><path d="M163.74,340.42h-.07l-143.58-.07a.51.51,0,0,1-.5-.5v-40a.55.55,0,0,1,.15-.36.52.52,0,0,1,.35-.14h0l132.69.49h.4A89.16,89.16,0,0,0,220.7,269c56.5-65.27,150.49-173.8,156.53-180.36l-10-18.3a.5.5,0,0,1,.18-.67l74-43.63a.51.51,0,0,1,.4-.05.48.48,0,0,1,.3.26l2.35,4.7a.48.48,0,0,1,0,.37L410.06,146.54a.5.5,0,0,1-.43.36.51.51,0,0,1-.49-.26l-10.93-20L250,301.4A115,115,0,0,1,163.74,340.42ZM20.59,339.35l143.08.07h.07a114,114,0,0,0,85.54-38.67L397.91,125.4a.54.54,0,0,1,.44-.18.5.5,0,0,1,.38.26l10.71,19.63,34-113.88-2-4.05L368.36,70.3l9.92,18.19a.51.51,0,0,1-.12.62c-1.27,1.17-58.39,67-156.7,180.56a90.21,90.21,0,0,1-68.27,31.2h-.4l-132.2-.49Z" style="fill:#263238"></path><path d="M365.33,65.41,375.49,84c-1.38,1.16-106,122-156.76,180.62a89.78,89.78,0,0,1-68.29,31l-130.35-.48v40l141.23.08a114.48,114.48,0,0,0,86-38.85L395.94,121l11.29,20.68L441.64,26.48Z" style="fill:#fff"></path><path d="M161.38,335.72h-.06l-141.23-.08a.5.5,0,0,1-.5-.5v-40a.53.53,0,0,1,.15-.36.76.76,0,0,1,.36-.14l130.34.48h.4a89.2,89.2,0,0,0,67.51-30.85C274.84,199,368.84,90.52,374.88,83.94l-10-18.29a.53.53,0,0,1,0-.39.48.48,0,0,1,.25-.29L441.42,26a.47.47,0,0,1,.54.06.48.48,0,0,1,.16.52L407.71,141.84a.53.53,0,0,1-.43.36.51.51,0,0,1-.49-.26l-10.94-20L247.69,296.7A115,115,0,0,1,161.38,335.72ZM20.59,334.64l140.73.08h.06A114,114,0,0,0,246.93,296L395.56,120.69a.56.56,0,0,1,.44-.17.49.49,0,0,1,.38.26l10.71,19.63L440.83,27.46,366,65.62l9.91,18.16a.52.52,0,0,1-.12.63C374,86.07,265.62,211.23,219.11,265a90.18,90.18,0,0,1-68.27,31.2h-.4l-129.85-.48Z" style="fill:#263238"></path></g></svg>
