<?xml version="1.0" encoding="iso-8859-1"?>
<!-- Generator: Adobe Illustrator 19.0.0, SVG Export Plug-In . SVG Version: 6.00 Build 0)  -->
<svg version="1.1" id="Capa_1" xmlns="http://www.w3.org/2000/svg" xmlns:xlink="http://www.w3.org/1999/xlink" x="0px" y="0px"
	 viewBox="0 0 512 512" style="enable-background:new 0 0 512 512;" xml:space="preserve">
<g>
	<path style="fill:#57545C;" d="M286.001,90H15C6.716,90,0,83.284,0,75s6.716-15,15-15h271.001c8.284,0,15,6.716,15,15
		S294.285,90,286.001,90z"/>
	<path style="fill:#57545C;" d="M497,90h-91c-8.284,0-15-6.716-15-15s6.716-15,15-15h91c8.284,0,15,6.716,15,15S505.284,90,497,90z"
		/>
</g>
<path style="fill:#009DFF;" d="M346,150c-41.355,0-75-33.645-75-75s33.645-75,75-75s75,33.645,75,75S387.355,150,346,150z M346,30
	c-24.813,0-45,20.187-45,45s20.187,45,45,45s45-20.187,45-45S370.813,30,346,30z"/>
<g>
	<path style="fill:#57545C;" d="M106.001,271H15c-8.284,0-15-6.716-15-15s6.716-15,15-15h91.001c8.284,0,15,6.716,15,15
		S114.285,271,106.001,271z"/>
	<path style="fill:#57545C;" d="M497,271H226c-8.284,0-15-6.716-15-15s6.716-15,15-15h271c8.284,0,15,6.716,15,15
		S505.284,271,497,271z"/>
</g>
<path style="fill:#009DFF;" d="M166,331c-41.355,0-75-33.645-75-75s33.645-75,75-75s75,33.645,75,75S207.355,331,166,331z M166,211
	c-24.813,0-45,20.187-45,45s20.187,45,45,45s45-20.187,45-45S190.813,211,166,211z"/>
<g>
	<path style="fill:#57545C;" d="M286.001,452H15c-8.284,0-15-6.716-15-15s6.716-15,15-15h271.001c8.284,0,15,6.716,15,15
		S294.285,452,286.001,452z"/>
	<path style="fill:#57545C;" d="M497,452h-91c-8.284,0-15-6.716-15-15s6.716-15,15-15h91c8.284,0,15,6.716,15,15
		S505.284,452,497,452z"/>
</g>
<path style="fill:#009DFF;" d="M346,512c-41.355,0-75-33.645-75-75s33.645-75,75-75s75,33.645,75,75S387.355,512,346,512z M346,392
	c-24.813,0-45,20.187-45,45s20.187,45,45,45s45-20.187,45-45S370.813,392,346,392z"/>
<g>
</g>
<g>
</g>
<g>
</g>
<g>
</g>
<g>
</g>
<g>
</g>
<g>
</g>
<g>
</g>
<g>
</g>
<g>
</g>
<g>
</g>
<g>
</g>
<g>
</g>
<g>
</g>
<g>
</g>
</svg>
